<svg version="1.1" xmlns="http://www.w3.org/2000/svg" viewBox="0 0 2424.0080168430604 670.8555657457584" width="4848.016033686121" height="1341.7111314915169">
  <!-- svg-source:excalidraw -->
  
  <defs>
    <style class="style-fonts">
      @font-face {
        font-family: "Virgil";
        src: url("https://excalidraw.com/Virgil.woff2");
      }
      @font-face {
        font-family: "Cascadia";
        src: url("https://excalidraw.com/Cascadia.woff2");
      }
    </style>
    
  </defs>
  <rect x="0" y="0" width="2424.0080168430604" height="670.8555657457584" fill="#ffffff"></rect><g stroke-linecap="round" transform="translate(258.1516188541516 151.20914815206095) rotate(0 138.47716655272114 86.36886656100069)"><path d="M7.86 8.16 C7.86 8.16, 7.86 8.16, 7.86 8.16 M7.86 8.16 C7.86 8.16, 7.86 8.16, 7.86 8.16 M3.66 19.09 C7.83 15.56, 10.46 9.77, 18.1 2.48 M3.66 19.09 C9.26 12.27, 14.45 7.18, 18.1 2.48 M2.75 26.24 C6.45 22.93, 10.95 16.28, 24.4 1.33 M2.75 26.24 C7.76 19.83, 13.86 11.93, 24.4 1.33 M2.48 32.64 C11.35 25.96, 15.63 16.58, 30.7 0.18 M2.48 32.64 C9.17 25.13, 17.54 17.27, 30.7 0.18 M2.88 38.28 C8.68 28.17, 17.02 21.4, 34.37 2.05 M2.88 38.28 C11.22 27.88, 19.91 19.01, 34.37 2.05 M2.62 44.68 C13.21 31.14, 26.31 15.12, 39.36 2.41 M2.62 44.68 C10.61 35.55, 18.49 27.35, 39.36 2.41 M2.36 51.07 C10.29 38.66, 19.8 31.33, 45 2.02 M2.36 51.07 C18.69 31.34, 35.07 12.91, 45 2.02 M2.75 56.72 C13.66 45.93, 22.14 34.62, 49.99 2.38 M2.75 56.72 C12.2 45.76, 22.72 33.93, 49.99 2.38 M2.49 63.11 C15.47 48.75, 27.43 36.61, 55.63 1.98 M2.49 63.11 C14.21 49.28, 28.37 34.01, 55.63 1.98 M2.88 68.76 C18.13 50.23, 35.6 30.65, 60.62 2.34 M2.88 68.76 C15.68 53.99, 28.29 38.82, 60.62 2.34 M2.62 75.16 C25.34 49.95, 43.78 26.17, 66.26 1.95 M2.62 75.16 C18.65 58.48, 32.38 40.2, 66.26 1.95 M2.36 81.55 C20.98 56.67, 44.77 34.15, 71.25 2.31 M2.36 81.55 C19.13 60.24, 37.47 39.15, 71.25 2.31 M2.76 87.2 C29 54.93, 58.23 26.6, 76.89 1.91 M2.76 87.2 C26.96 59.23, 52.33 31.05, 76.89 1.91 M2.49 93.59 C22.4 72.53, 39.45 52.43, 81.88 2.27 M2.49 93.59 C29.09 63.65, 53.6 34.92, 81.88 2.27 M2.89 99.24 C23.89 72.93, 45.38 47.91, 87.52 1.88 M2.89 99.24 C26.62 72.8, 50.89 44.82, 87.52 1.88 M2.63 105.64 C27.89 76, 51.04 48.22, 92.51 2.24 M2.63 105.64 C26.48 79.1, 49.32 52.7, 92.51 2.24 M2.37 112.03 C33.85 76.81, 65.31 39.22, 98.15 1.85 M2.37 112.03 C38.22 69.59, 76.19 28.53, 98.15 1.85 M2.76 117.68 C39.81 76.12, 78.49 30.81, 103.14 2.21 M2.76 117.68 C33.77 81.01, 64.53 46.13, 103.14 2.21 M2.5 124.07 C32.2 92.23, 58.8 56.17, 108.78 1.81 M2.5 124.07 C36.05 84.41, 72.51 44.74, 108.78 1.81 M2.89 129.72 C41.66 81.94, 82.99 39.16, 113.77 2.17 M2.89 129.72 C43 83.5, 84.42 34.9, 113.77 2.17 M2.63 136.11 C37.22 97.03, 74.85 54.94, 119.41 1.78 M2.63 136.11 C44.53 89.91, 83.62 45.08, 119.41 1.78 M2.37 142.51 C50.05 85.67, 97.26 31.6, 124.4 2.14 M2.37 142.51 C41.75 97.79, 80.71 51.96, 124.4 2.14 M1.45 149.67 C53.88 91.04, 101.46 33.36, 130.04 1.74 M1.45 149.67 C38.42 109.14, 75.47 67.62, 130.04 1.74 M3.16 153.8 C37.24 108.51, 76.83 65.94, 135.03 2.1 M3.16 153.8 C42.43 107.06, 83.81 59.86, 135.03 2.1 M4.87 157.93 C45.4 111.82, 84.66 64.2, 140.67 1.71 M4.87 157.93 C47.85 109.45, 89.42 61.33, 140.67 1.71 M6.57 162.07 C36.96 126.02, 70.23 89.27, 145.66 2.07 M6.57 162.07 C39.08 124.4, 72.39 86.47, 145.66 2.07 M9.59 164.69 C47.75 119.53, 89.56 72.95, 150.65 2.43 M9.59 164.69 C66.52 99.62, 122.97 34.62, 150.65 2.43 M11.96 168.07 C47.53 128.25, 82.28 88.58, 156.29 2.03 M11.96 168.07 C53.18 120.7, 94.38 73.87, 156.29 2.03 M14.97 170.69 C49.13 129.89, 82.5 93.56, 161.28 2.39 M14.97 170.69 C53.8 124.8, 92.11 80.03, 161.28 2.39 M19.31 171.81 C64.61 119.28, 110.53 66.82, 166.92 2 M19.31 171.81 C51.87 134.65, 84.84 96.01, 166.92 2 M23.64 172.92 C69.27 121.84, 115.83 69.39, 171.91 2.36 M23.64 172.92 C60.07 131.87, 97.72 90.25, 171.91 2.36 M27.31 174.79 C70.1 125.62, 112.21 75.85, 177.55 1.96 M27.31 174.79 C68.23 128.93, 107.56 83, 177.55 1.96 M33.61 173.64 C75.84 124.49, 118.52 77.09, 182.54 2.32 M33.61 173.64 C89.42 110.08, 144.36 45.61, 182.54 2.32 M38.6 174 C94.12 112.75, 146.62 51.83, 188.18 1.93 M38.6 174 C70.23 138.65, 102.81 103.7, 188.18 1.93 M44.24 173.61 C81.21 130.45, 121.5 86.01, 193.17 2.29 M44.24 173.61 C92.31 119.36, 139.32 64.87, 193.17 2.29 M49.23 173.97 C102.79 111.84, 158.92 50.74, 198.81 1.9 M49.23 173.97 C96.64 119.36, 145.19 64.56, 198.81 1.9 M54.87 173.57 C103.84 117.03, 148.12 63.79, 203.8 2.26 M54.87 173.57 C93.41 129.03, 133.37 83.27, 203.8 2.26 M59.86 173.93 C108.07 119.43, 154.16 62.94, 209.44 1.86 M59.86 173.93 C94.02 133.39, 127.31 94.93, 209.44 1.86 M64.84 174.29 C101.63 130.74, 140.21 88.46, 214.43 2.22 M64.84 174.29 C100.4 135.51, 133.95 95.25, 214.43 2.22 M70.49 173.9 C111.71 124.49, 155.23 76.08, 220.07 1.83 M70.49 173.9 C108.33 131.22, 145.46 89.43, 220.07 1.83 M75.47 174.26 C113.05 129.4, 151.8 84.88, 225.06 2.19 M75.47 174.26 C124.02 117.99, 174.66 59.1, 225.06 2.19 M81.12 173.87 C121.8 127.25, 163.2 80.64, 230.7 1.79 M81.12 173.87 C118.27 132.05, 154.58 90.1, 230.7 1.79 M86.1 174.23 C123.35 131.48, 159.8 89.46, 235.69 2.15 M86.1 174.23 C135.08 117.3, 183.04 60.83, 235.69 2.15 M91.75 173.83 C143.08 114.68, 196.8 52.15, 241.33 1.76 M91.75 173.83 C145.53 110.61, 202 45.84, 241.33 1.76 M96.73 174.19 C145.43 117.97, 191.71 63.36, 246.97 1.36 M96.73 174.19 C140.22 123.62, 182.74 73.4, 246.97 1.36 M102.38 173.8 C153.53 117.08, 203.39 59.6, 251.3 2.48 M102.38 173.8 C152.63 115.75, 203.28 56.83, 251.3 2.48 M107.36 174.16 C151.94 121.71, 195.54 72.43, 256.29 2.84 M107.36 174.16 C151.79 123.57, 195.45 73.6, 256.29 2.84 M113.01 173.76 C157.98 119.41, 204.94 66.26, 260.62 3.95 M113.01 173.76 C166.4 114.61, 217.81 56.57, 260.62 3.95 M117.99 174.12 C173.93 107.52, 231.59 41.16, 264.95 5.07 M117.99 174.12 C169.47 114.77, 221.31 56.31, 264.95 5.07 M123.64 173.73 C169.53 123.48, 213.31 71.74, 267.97 7.69 M123.64 173.73 C173.77 114.31, 223.89 58.06, 267.97 7.69 M128.62 174.09 C176.48 119.5, 218.92 69.95, 270.99 10.32 M128.62 174.09 C172.96 125.12, 217.13 74.12, 270.99 10.32 M134.27 173.69 C163.97 137.89, 195.67 103.23, 273.35 13.69 M134.27 173.69 C183.02 115.71, 234.17 58.64, 273.35 13.69 M139.25 174.05 C169.52 139.74, 199.62 106.45, 275.06 17.83 M139.25 174.05 C178.35 128.18, 217.64 81.69, 275.06 17.83 M144.9 173.66 C180.12 134.82, 217.6 91.16, 278.08 20.45 M144.9 173.66 C196.2 113.44, 246.05 55.45, 278.08 20.45 M149.89 174.02 C189.1 128.02, 231.43 81.36, 278.47 26.1 M149.89 174.02 C188.34 130.99, 225.03 88.66, 278.47 26.1 M155.53 173.62 C200.31 123.58, 246.14 70.4, 278.21 32.49 M155.53 173.62 C192.18 134.05, 226.68 92.52, 278.21 32.49 M160.52 173.98 C190.92 141.98, 220.2 109.81, 277.95 38.89 M160.52 173.98 C205.38 122.02, 250.25 69.61, 277.95 38.89 M166.16 173.59 C209.04 124.42, 249.48 77.37, 277.69 45.29 M166.16 173.59 C201.17 132.66, 236.65 91.81, 277.69 45.29 M171.15 173.95 C207.95 130.64, 244.74 89.44, 278.08 50.93 M171.15 173.95 C203.99 138.28, 234.24 101.51, 278.08 50.93 M176.79 173.55 C216.06 129.77, 252.46 87.91, 277.82 57.33 M176.79 173.55 C215.26 128.16, 253.64 84.1, 277.82 57.33 M181.78 173.92 C219.62 133.78, 256.14 93.65, 278.22 62.97 M181.78 173.92 C204.23 148, 228.82 120.25, 278.22 62.97 M186.76 174.28 C208.78 148.37, 229.07 122.84, 277.95 69.37 M186.76 174.28 C219.09 136.5, 251.34 101.69, 277.95 69.37 M192.41 173.88 C221.71 139.28, 253.7 102.6, 277.69 75.77 M192.41 173.88 C217.16 146, 240.15 118.72, 277.69 75.77 M197.39 174.24 C217.66 146.95, 241.42 121.59, 278.09 81.41 M197.39 174.24 C227.37 140.29, 258.26 104.86, 278.09 81.41 M203.04 173.85 C233.18 141.34, 261.85 104.92, 277.83 87.81 M203.04 173.85 C231.87 139.76, 261.24 106.82, 277.83 87.81 M208.02 174.21 C233.44 143.61, 259.16 114.3, 278.22 93.45 M208.02 174.21 C233.61 143.61, 260.62 113.7, 278.22 93.45 M213.67 173.81 C238.51 145.41, 264.32 116.1, 277.96 99.85 M213.67 173.81 C236.61 147.95, 259.93 121.61, 277.96 99.85 M218.65 174.17 C234.71 157.87, 247.14 141.68, 277.7 106.25 M218.65 174.17 C238.77 149.8, 259.64 126.9, 277.7 106.25 M224.3 173.78 C242.99 152.7, 262.88 129.83, 278.09 111.89 M224.3 173.78 C240.04 155.07, 255.07 137.41, 278.09 111.89 M229.28 174.14 C248.41 153.78, 266.71 133.49, 277.83 118.29 M229.28 174.14 C241.56 161.23, 252.54 146.04, 277.83 118.29 M234.93 173.74 C250.68 156.12, 263.09 141.6, 278.23 123.93 M234.93 173.74 C248.74 156.75, 264.12 139.62, 278.23 123.93 M239.91 174.1 C249.98 163.5, 261.79 150.06, 277.96 130.33 M239.91 174.1 C252.14 160.57, 263.71 147.55, 277.96 130.33 M245.56 173.71 C258.96 159.43, 271.83 146.18, 277.7 136.73 M245.56 173.71 C255.39 160.77, 266.13 150.5, 277.7 136.73 M251.2 173.31 C259.22 166, 264.14 156.96, 278.1 142.37 M251.2 173.31 C259.81 163.35, 267.65 153.01, 278.1 142.37 M255.53 174.43 C261.04 166.24, 269.93 157.41, 277.18 149.52 M255.53 174.43 C263.38 165.28, 271.08 156.73, 277.18 149.52" stroke="#b2f2bb" stroke-width="0.5" fill="none"></path><path d="M32 0 M32 0 C84.02 0.56, 139.93 1.8, 244.95 0 M32 0 C111.51 -0.07, 189.87 -0.31, 244.95 0 M244.95 0 C266.71 1.08, 275.82 10.99, 276.95 32 M244.95 0 C265.59 1.18, 274.98 12.94, 276.95 32 M276.95 32 C277.83 55.37, 274.87 81.09, 276.95 140.74 M276.95 32 C277.61 71.34, 277.47 111.93, 276.95 140.74 M276.95 140.74 C275.43 163.22, 267.95 172.32, 244.95 172.74 M276.95 140.74 C275.18 159.89, 265.23 171.41, 244.95 172.74 M244.95 172.74 C199.87 170.7, 153.98 172.05, 32 172.74 M244.95 172.74 C191.08 173.04, 137.43 171.97, 32 172.74 M32 172.74 C12.47 171.53, -1.16 162.48, 0 140.74 M32 172.74 C9.38 174.97, 1.65 160.4, 0 140.74 M0 140.74 C0.41 115.21, 1.04 94.69, 0 32 M0 140.74 C1.27 105.67, 0.85 68.88, 0 32 M0 32 C1.31 8.92, 8.99 -0.96, 32 0 M0 32 C0.12 12.19, 11.47 1.13, 32 0" stroke="#1e1e1e" stroke-width="1" fill="none"></path></g><g transform="translate(352.2047970645875 215.07801471306163) rotate(0 44.423988342285156 22.5)"><text x="44.423988342285156" y="0" font-family="Virgil, Segoe UI Emoji" font-size="36px" fill="#1e1e1e" text-anchor="middle" style="white-space: pre;" direction="ltr" dominant-baseline="text-before-edge">data</text></g><g stroke-linecap="round" transform="translate(536.7596970885469 151.27291707385393) rotate(0 138.4771665527211 86.36886656100069)"><path d="M7.86 8.16 C7.86 8.16, 7.86 8.16, 7.86 8.16 M7.86 8.16 C7.86 8.16, 7.86 8.16, 7.86 8.16 M3.66 19.09 C5.15 14.63, 11.86 11.3, 18.1 2.48 M3.66 19.09 C7.79 14.03, 11.64 8.92, 18.1 2.48 M2.75 26.24 C10.44 19.84, 15.61 8.78, 24.4 1.33 M2.75 26.24 C10.47 18.28, 16.3 10.36, 24.4 1.33 M2.48 32.64 C10.82 24.76, 14.81 18.77, 30.7 0.18 M2.48 32.64 C12.2 21.28, 23.7 9, 30.7 0.18 M2.88 38.28 C12.28 27.49, 23.22 15.26, 34.37 2.05 M2.88 38.28 C9.49 30.8, 16.69 21.98, 34.37 2.05 M2.62 44.68 C14.15 29.72, 28.42 16.83, 39.36 2.41 M2.62 44.68 C11.74 35.64, 18.55 25.73, 39.36 2.41 M2.36 51.07 C16.7 35.71, 31.15 18.05, 45 2.02 M2.36 51.07 C15.12 36.34, 28.66 19.47, 45 2.02 M2.75 56.72 C12.5 44.6, 27.28 29.49, 49.99 2.38 M2.75 56.72 C15.72 42.31, 27.01 28.31, 49.99 2.38 M2.49 63.11 C21.09 39.17, 42.2 14.92, 55.63 1.98 M2.49 63.11 C13.41 49.89, 25.48 36.57, 55.63 1.98 M2.88 68.76 C16.67 54.45, 27.42 40.14, 60.62 2.34 M2.88 68.76 C16.54 53.71, 31.63 36.11, 60.62 2.34 M2.62 75.16 C16.82 57.46, 31.46 44.76, 66.26 1.95 M2.62 75.16 C24.34 52.25, 44.7 27.07, 66.26 1.95 M2.36 81.55 C27.26 53.28, 54.71 24.93, 71.25 2.31 M2.36 81.55 C25.33 54.44, 50.49 26.52, 71.25 2.31 M2.76 87.2 C32.83 52.69, 58.92 22.43, 76.89 1.91 M2.76 87.2 C32.56 53.56, 62.05 19.56, 76.89 1.91 M2.49 93.59 C26.76 62.52, 52.27 36.85, 81.88 2.27 M2.49 93.59 C33.43 59.62, 64.9 24.24, 81.88 2.27 M2.89 99.24 C28.45 68.35, 55.86 41.73, 87.52 1.88 M2.89 99.24 C34.05 62.56, 66.68 25.97, 87.52 1.88 M2.63 105.64 C38.62 67.94, 71.92 26.74, 92.51 2.24 M2.63 105.64 C20.29 84.93, 38.54 64.63, 92.51 2.24 M2.37 112.03 C23.8 83.42, 46.77 59.59, 98.15 1.85 M2.37 112.03 C37.2 72.48, 70.57 34.82, 98.15 1.85 M2.76 117.68 C24.21 91.56, 50.47 62.42, 103.14 2.21 M2.76 117.68 C24.47 93.15, 45.75 66.92, 103.14 2.21 M2.5 124.07 C40.08 80.78, 76.16 41.85, 108.78 1.81 M2.5 124.07 C23.94 96.27, 47.3 70.79, 108.78 1.81 M2.89 129.72 C46.33 79.39, 89.81 32.01, 113.77 2.17 M2.89 129.72 C41.09 86.14, 79.07 41.96, 113.77 2.17 M2.63 136.11 C43.33 86.17, 89.19 35.32, 119.41 1.78 M2.63 136.11 C48.92 84.95, 94.85 32.29, 119.41 1.78 M2.37 142.51 C42.78 98.44, 80.87 54.21, 124.4 2.14 M2.37 142.51 C32.46 106.39, 62.65 73.58, 124.4 2.14 M1.45 149.67 C51.65 91.41, 103.02 32.55, 130.04 1.74 M1.45 149.67 C39.5 104.79, 79.51 59.52, 130.04 1.74 M3.16 153.8 C48.08 99.38, 92.28 48.99, 135.03 2.1 M3.16 153.8 C35.59 115.08, 67.62 78.85, 135.03 2.1 M4.87 157.93 C42.09 116.71, 77.93 74.55, 140.67 1.71 M4.87 157.93 C49.44 106.18, 95.35 54.15, 140.67 1.71 M6.57 162.07 C58.4 104.15, 107.22 46.51, 145.66 2.07 M6.57 162.07 C42.57 120.69, 77.78 79.98, 145.66 2.07 M9.59 164.69 C59.98 104.23, 109.56 45.98, 150.65 2.43 M9.59 164.69 C43.98 123.1, 79.08 82.69, 150.65 2.43 M11.96 168.07 C55.91 115.83, 98.89 67.99, 156.29 2.03 M11.96 168.07 C50.29 124.83, 89.17 79.34, 156.29 2.03 M14.97 170.69 C52.25 125.48, 92.32 80.13, 161.28 2.39 M14.97 170.69 C65.38 111.88, 117.13 52.33, 161.28 2.39 M19.31 171.81 C54.09 127.11, 92.91 85.68, 166.92 2 M19.31 171.81 C51.08 134.4, 81.79 98.74, 166.92 2 M23.64 172.92 C62.97 127.56, 99.39 82.93, 171.91 2.36 M23.64 172.92 C76.4 112.13, 130.04 50.61, 171.91 2.36 M27.31 174.79 C80.2 114.69, 134.46 52.22, 177.55 1.96 M27.31 174.79 C73.5 120.25, 121.5 66.46, 177.55 1.96 M33.61 173.64 C65.51 137.02, 98.7 99.66, 182.54 2.32 M33.61 173.64 C81.54 120.32, 128.88 64.53, 182.54 2.32 M38.6 174 C87.64 116.95, 139.71 60.99, 188.18 1.93 M38.6 174 C93.09 111.14, 146.52 49.7, 188.18 1.93 M44.24 173.61 C95.09 115.69, 146.32 57.37, 193.17 2.29 M44.24 173.61 C85.13 124.71, 128.26 75.44, 193.17 2.29 M49.23 173.97 C95.68 118.73, 142.5 62.07, 198.81 1.9 M49.23 173.97 C79.22 138.37, 111.59 102.22, 198.81 1.9 M54.87 173.57 C89.75 134.5, 125.31 95.08, 203.8 2.26 M54.87 173.57 C89.33 133.31, 125.8 90.84, 203.8 2.26 M59.86 173.93 C94.84 134.06, 129.5 93.16, 209.44 1.86 M59.86 173.93 C105.3 125.22, 148.04 74.31, 209.44 1.86 M64.84 174.29 C119.95 109.95, 178.22 46.56, 214.43 2.22 M64.84 174.29 C125.49 108.37, 183.31 39.38, 214.43 2.22 M70.49 173.9 C106.2 129.83, 145.11 91.3, 220.07 1.83 M70.49 173.9 C117.14 119.71, 163.04 67.6, 220.07 1.83 M75.47 174.26 C116.7 122.84, 158.33 75.36, 225.06 2.19 M75.47 174.26 C114.27 130.01, 153.62 84.57, 225.06 2.19 M81.12 173.87 C117.92 129.66, 159.9 86.51, 230.7 1.79 M81.12 173.87 C130.58 117.08, 179.36 60, 230.7 1.79 M86.1 174.23 C140.92 111.84, 197.29 47.63, 235.69 2.15 M86.1 174.23 C142.83 107.62, 199.34 42.72, 235.69 2.15 M91.75 173.83 C133.42 128.59, 173.81 85.32, 241.33 1.76 M91.75 173.83 C135.32 123.33, 178.08 73.98, 241.33 1.76 M96.73 174.19 C132.03 132.36, 164.99 94.21, 246.97 1.36 M96.73 174.19 C131.06 135.79, 164.96 97.25, 246.97 1.36 M102.38 173.8 C159.83 107.28, 219.4 44.19, 251.3 2.48 M102.38 173.8 C146.31 121.24, 191.2 70.77, 251.3 2.48 M107.36 174.16 C138.17 137.99, 171.1 100.67, 256.29 2.84 M107.36 174.16 C146.32 128.14, 186.18 82.34, 256.29 2.84 M113.01 173.76 C145.01 138.31, 174.44 102.03, 260.62 3.95 M113.01 173.76 C162.94 115.29, 214.66 56.75, 260.62 3.95 M117.99 174.12 C149.91 135.02, 181.39 100.48, 264.95 5.07 M117.99 174.12 C164.25 120.45, 211.64 66.6, 264.95 5.07 M123.64 173.73 C164.08 129.64, 201.75 88.37, 267.97 7.69 M123.64 173.73 C176.84 112.89, 230.41 49.82, 267.97 7.69 M128.62 174.09 C168.05 129.18, 209.35 79.87, 270.99 10.32 M128.62 174.09 C185.7 109.11, 242.22 43.94, 270.99 10.32 M134.27 173.69 C184.2 118.59, 233.98 59.66, 273.35 13.69 M134.27 173.69 C164.52 140.53, 192.16 107.9, 273.35 13.69 M139.25 174.05 C170.83 136.15, 204.25 98.13, 275.06 17.83 M139.25 174.05 C173.93 135.18, 208.89 96.22, 275.06 17.83 M144.9 173.66 C172.53 139.98, 203.88 104.92, 278.08 20.45 M144.9 173.66 C176.1 137.48, 206.83 101.23, 278.08 20.45 M149.89 174.02 C177.65 140.53, 210.4 105.92, 278.47 26.1 M149.89 174.02 C179.57 139.61, 210.96 104.1, 278.47 26.1 M155.53 173.62 C189.2 134.29, 220.38 97.7, 278.21 32.49 M155.53 173.62 C195.89 125.85, 235.99 81.44, 278.21 32.49 M160.52 173.98 C205.02 122.01, 251.36 69.91, 277.95 38.89 M160.52 173.98 C190 139.59, 218.38 104.04, 277.95 38.89 M166.16 173.59 C194.04 138.35, 224.65 106.46, 277.69 45.29 M166.16 173.59 C199.94 133.73, 233.79 95.32, 277.69 45.29 M171.15 173.95 C211.53 127.68, 250.7 83.36, 278.08 50.93 M171.15 173.95 C212.95 126.11, 253.79 78.11, 278.08 50.93 M176.79 173.55 C197.76 152.35, 219.59 127.56, 277.82 57.33 M176.79 173.55 C204.54 142.3, 233.13 110.81, 277.82 57.33 M181.78 173.92 C202.71 150.9, 226.36 126.35, 278.22 62.97 M181.78 173.92 C206.88 141.56, 235.04 111.03, 278.22 62.97 M186.76 174.28 C209.27 148.4, 234.14 119.3, 277.95 69.37 M186.76 174.28 C215.92 141.81, 243.97 109.06, 277.95 69.37 M192.41 173.88 C216.41 144.44, 243.66 115.77, 277.69 75.77 M192.41 173.88 C223.19 137.42, 255.55 102.98, 277.69 75.77 M197.39 174.24 C215.47 148.82, 239.29 127.42, 278.09 81.41 M197.39 174.24 C225.29 140.12, 253.93 106.18, 278.09 81.41 M203.04 173.85 C229.24 144.34, 258.26 113.08, 277.83 87.81 M203.04 173.85 C219.27 155.65, 234.97 137.04, 277.83 87.81 M208.02 174.21 C233.64 145.89, 260.13 114.97, 278.22 93.45 M208.02 174.21 C230.82 148.7, 252.91 122.46, 278.22 93.45 M213.67 173.81 C234.2 153.52, 249.67 132.72, 277.96 99.85 M213.67 173.81 C227.52 158.7, 240.96 141.2, 277.96 99.85 M218.65 174.17 C229.8 160.26, 245.3 144.63, 277.7 106.25 M218.65 174.17 C241.44 146.1, 265.42 118.54, 277.7 106.25 M224.3 173.78 C242.88 151.03, 258.53 130.56, 278.09 111.89 M224.3 173.78 C237.75 157.96, 253.3 140.01, 278.09 111.89 M229.28 174.14 C239.95 160.37, 249.48 150.78, 277.83 118.29 M229.28 174.14 C244.19 154.86, 260.54 136.76, 277.83 118.29 M234.93 173.74 C246.62 158.81, 259.41 148.09, 278.23 123.93 M234.93 173.74 C249.01 158.28, 262.25 143.42, 278.23 123.93 M239.91 174.1 C253.78 159.58, 269.95 140.39, 277.96 130.33 M239.91 174.1 C254.04 158.92, 267.39 142.62, 277.96 130.33 M245.56 173.71 C255.15 162.22, 266.81 149.37, 277.7 136.73 M245.56 173.71 C258.64 159.57, 269.69 146.17, 277.7 136.73 M251.2 173.31 C257.68 166.18, 265.75 156.38, 278.1 142.37 M251.2 173.31 C258.14 166.11, 264.55 157.43, 278.1 142.37 M255.53 174.43 C260.3 165.17, 266.74 157.54, 277.18 149.52 M255.53 174.43 C262.85 166.72, 269.63 157.48, 277.18 149.52" stroke="#b2f2bb" stroke-width="0.5" fill="none"></path><path d="M32 0 M32 0 C82.36 -1.31, 135.91 0.12, 244.95 0 M32 0 C93.89 -1.17, 155.59 -1.61, 244.95 0 M244.95 0 C267.36 1.09, 277.73 11.76, 276.95 32 M244.95 0 C267.41 -2.14, 275.91 12.56, 276.95 32 M276.95 32 C278.71 64.21, 279.79 90.92, 276.95 140.74 M276.95 32 C277.42 68.93, 275.83 104.93, 276.95 140.74 M276.95 140.74 C275.75 162.92, 267.81 170.82, 244.95 172.74 M276.95 140.74 C276.94 162.69, 265.18 172.13, 244.95 172.74 M244.95 172.74 C174.17 171.82, 106.94 170.98, 32 172.74 M244.95 172.74 C176.62 170.76, 108.27 171.43, 32 172.74 M32 172.74 C8.82 170.98, 0.25 161.31, 0 140.74 M32 172.74 C10.32 170.8, 0.12 160.08, 0 140.74 M0 140.74 C0.3 99.25, 2.55 53.98, 0 32 M0 140.74 C-1.46 113.13, -1.85 86.44, 0 32 M0 32 C1.13 12.39, 12.13 -0.54, 32 0 M0 32 C1.86 12.29, 12.08 1.83, 32 0" stroke="#1e1e1e" stroke-width="1" fill="none"></path></g><g transform="translate(636.698876885897 215.14178363485462) rotate(0 38.537986755371094 22.5)"><text x="38.537986755371094" y="0" font-family="Virgil, Segoe UI Emoji" font-size="36px" fill="#1e1e1e" text-anchor="middle" style="white-space: pre;" direction="ltr" dominant-baseline="text-before-edge">next</text></g><g stroke-linecap="round"><g transform="translate(822.033585177042 237.01749849830082) rotate(0 60.665763579490886 -0.15312853194774334)"><path d="M0.37 0.76 C20.23 0.75, 100.07 -0.91, 120.14 -1.06 M-0.89 0.11 C19.22 0.3, 102.12 -0.25, 122.23 -0.08" stroke="#1e1e1e" stroke-width="1" fill="none"></path></g><g transform="translate(822.033585177042 237.01749849830082) rotate(0 60.665763579490886 -0.15312853194774334)"><path d="M95.3 8.19 C103.19 5.24, 115.55 3.93, 122.82 0.13 M94.55 10.67 C104.12 5.74, 113.51 3, 121.39 0.38" stroke="#1e1e1e" stroke-width="1" fill="none"></path></g><g transform="translate(822.033585177042 237.01749849830082) rotate(0 60.665763579490886 -0.15312853194774334)"><path d="M95.29 -12.33 C103.01 -7.39, 115.37 -0.81, 122.82 0.13 M94.55 -9.85 C104.03 -7.65, 113.42 -3.26, 121.39 0.38" stroke="#1e1e1e" stroke-width="1" fill="none"></path></g></g><mask></mask><g stroke-linecap="round" transform="translate(949.4223249468613 150.23964156324087) rotate(0 138.4771665527211 86.36886656100069)"><path d="M7.86 8.16 C7.86 8.16, 7.86 8.16, 7.86 8.16 M7.86 8.16 C7.86 8.16, 7.86 8.16, 7.86 8.16 M3.66 19.09 C10.09 13.53, 14.39 6.34, 18.1 2.48 M3.66 19.09 C8.61 13.3, 14.94 6.38, 18.1 2.48 M2.75 26.24 C12.06 15.76, 19 8.02, 24.4 1.33 M2.75 26.24 C9.22 19.44, 15.4 14.2, 24.4 1.33 M2.48 32.64 C11.02 22.61, 18.65 13.45, 30.7 0.18 M2.48 32.64 C9.55 24.49, 14.87 18.22, 30.7 0.18 M2.88 38.28 C10.52 30.43, 18.3 22.54, 34.37 2.05 M2.88 38.28 C14.87 23.73, 28.27 11.5, 34.37 2.05 M2.62 44.68 C14.14 31.19, 25.91 20.39, 39.36 2.41 M2.62 44.68 C10.02 35.71, 18.72 26.04, 39.36 2.41 M2.36 51.07 C12.72 38.45, 24.05 25.56, 45 2.02 M2.36 51.07 C12.04 40.94, 20.27 30.07, 45 2.02 M2.75 56.72 C17.41 38.68, 35.83 19.73, 49.99 2.38 M2.75 56.72 C12.76 43.69, 22.8 33.12, 49.99 2.38 M2.49 63.11 C19.04 44.4, 37.42 24.79, 55.63 1.98 M2.49 63.11 C17.71 46.74, 31.49 32.07, 55.63 1.98 M2.88 68.76 C24.73 45.99, 45.76 18.49, 60.62 2.34 M2.88 68.76 C18.78 50.79, 35.71 30.27, 60.62 2.34 M2.62 75.16 C28.33 45.8, 53.45 16.56, 66.26 1.95 M2.62 75.16 C25.51 50.09, 48.36 22.86, 66.26 1.95 M2.36 81.55 C18.3 65.46, 30.17 49.92, 71.25 2.31 M2.36 81.55 C18.33 62.3, 35.33 42.98, 71.25 2.31 M2.76 87.2 C21.1 66.08, 41.87 45.03, 76.89 1.91 M2.76 87.2 C18.06 68.4, 35.51 48.88, 76.89 1.91 M2.49 93.59 C21.93 71.82, 39.1 50.06, 81.88 2.27 M2.49 93.59 C19.86 72.87, 39.66 51.61, 81.88 2.27 M2.89 99.24 C21.4 76.64, 42.77 53.26, 87.52 1.88 M2.89 99.24 C25.8 72.4, 47.71 46.83, 87.52 1.88 M2.63 105.64 C32.65 69.49, 62.44 38.66, 92.51 2.24 M2.63 105.64 C37.14 65.48, 72.38 25.55, 92.51 2.24 M2.37 112.03 C27.13 84.85, 48.87 54.02, 98.15 1.85 M2.37 112.03 C26.89 82.35, 52.63 54.41, 98.15 1.85 M2.76 117.68 C32.83 81.77, 63.37 47.68, 103.14 2.21 M2.76 117.68 C40.42 74.43, 77.19 32.49, 103.14 2.21 M2.5 124.07 C44.77 76.9, 84.48 29.19, 108.78 1.81 M2.5 124.07 C24.51 100.97, 46.63 75.69, 108.78 1.81 M2.89 129.72 C32.95 95.55, 65.12 61.36, 113.77 2.17 M2.89 129.72 C27.55 102.54, 52.98 74.62, 113.77 2.17 M2.63 136.11 C32.38 96.45, 67.37 59.92, 119.41 1.78 M2.63 136.11 C32.32 102.08, 63.17 66.34, 119.41 1.78 M2.37 142.51 C42.02 99.11, 79.32 55.25, 124.4 2.14 M2.37 142.51 C38.2 100.11, 75.27 58.81, 124.4 2.14 M1.45 149.67 C47.43 94.39, 96.7 43.26, 130.04 1.74 M1.45 149.67 C32.1 111.26, 66.57 74.6, 130.04 1.74 M3.16 153.8 C48.88 98.12, 95.64 42.54, 135.03 2.1 M3.16 153.8 C50.08 99.73, 98.77 44.69, 135.03 2.1 M4.87 157.93 C34.39 124.81, 62.91 91.02, 140.67 1.71 M4.87 157.93 C55.38 100.43, 105.62 42.44, 140.67 1.71 M6.57 162.07 C51.76 111.33, 95.71 59.34, 145.66 2.07 M6.57 162.07 C47.83 116.09, 86.21 70.62, 145.66 2.07 M9.59 164.69 C40.07 131.13, 69.8 93.39, 150.65 2.43 M9.59 164.69 C39.96 128.75, 72.74 92, 150.65 2.43 M11.96 168.07 C67.99 99.89, 126.35 32.81, 156.29 2.03 M11.96 168.07 C59.73 111.37, 106.77 56.19, 156.29 2.03 M14.97 170.69 C52.48 126.92, 93.83 79.23, 161.28 2.39 M14.97 170.69 C45.75 133.42, 76.79 98.31, 161.28 2.39 M19.31 171.81 C65.97 113.97, 115.51 58.21, 166.92 2 M19.31 171.81 C61.13 124.58, 102.9 78.26, 166.92 2 M23.64 172.92 C71.12 120.13, 116.64 68.39, 171.91 2.36 M23.64 172.92 C78.49 109.73, 134.95 44.54, 171.91 2.36 M27.31 174.79 C81.74 113.85, 134.57 51.49, 177.55 1.96 M27.31 174.79 C74.68 121.83, 122 67.62, 177.55 1.96 M33.61 173.64 C91.8 109.75, 145.83 46.41, 182.54 2.32 M33.61 173.64 C78.09 123.99, 123.05 72.05, 182.54 2.32 M38.6 174 C75.68 132.05, 112.48 87.49, 188.18 1.93 M38.6 174 C83.44 121.38, 128.96 68.93, 188.18 1.93 M44.24 173.61 C94.65 116.39, 143.87 57.31, 193.17 2.29 M44.24 173.61 C78.75 130.9, 115.88 89.72, 193.17 2.29 M49.23 173.97 C93.47 123.91, 136.62 73.08, 198.81 1.9 M49.23 173.97 C101.82 113, 153.5 51.31, 198.81 1.9 M54.87 173.57 C111.93 107.61, 170.56 43.06, 203.8 2.26 M54.87 173.57 C84.48 138.97, 116.36 102.21, 203.8 2.26 M59.86 173.93 C108.52 118.3, 153.68 66.94, 209.44 1.86 M59.86 173.93 C97.88 129.9, 134.77 86.98, 209.44 1.86 M64.84 174.29 C113.61 117.65, 160.93 62.78, 214.43 2.22 M64.84 174.29 C100.94 132.98, 138.39 90.14, 214.43 2.22 M70.49 173.9 C104.37 136.86, 135.48 100.48, 220.07 1.83 M70.49 173.9 C128.07 106.2, 187.11 36.72, 220.07 1.83 M75.47 174.26 C119.53 127.22, 161.45 77.39, 225.06 2.19 M75.47 174.26 C132.07 107.46, 188.33 42.31, 225.06 2.19 M81.12 173.87 C120.69 126.91, 162.83 79.89, 230.7 1.79 M81.12 173.87 C126.41 123.91, 169.82 72.14, 230.7 1.79 M86.1 174.23 C119.17 139.77, 149.31 103.1, 235.69 2.15 M86.1 174.23 C125.87 126.7, 166.55 80.05, 235.69 2.15 M91.75 173.83 C132.1 128.71, 169.65 87.75, 241.33 1.76 M91.75 173.83 C128.33 130.99, 165.24 89.43, 241.33 1.76 M96.73 174.19 C150.97 108.34, 206.24 46.33, 246.97 1.36 M96.73 174.19 C147.9 112.73, 201.87 52.95, 246.97 1.36 M102.38 173.8 C139.86 130.61, 179.47 86.93, 251.3 2.48 M102.38 173.8 C142.8 127.94, 184.42 80.18, 251.3 2.48 M107.36 174.16 C146.43 130.69, 186.73 86.04, 256.29 2.84 M107.36 174.16 C150.6 124.76, 193.52 75.97, 256.29 2.84 M113.01 173.76 C149.97 130.37, 188.47 84.65, 260.62 3.95 M113.01 173.76 C169.72 107.84, 227.94 41.93, 260.62 3.95 M117.99 174.12 C160.88 125.27, 202.13 78.11, 264.95 5.07 M117.99 174.12 C165.58 121.2, 212.31 66.79, 264.95 5.07 M123.64 173.73 C157.21 135.82, 188.06 95.83, 267.97 7.69 M123.64 173.73 C170.78 120.81, 215.54 68.14, 267.97 7.69 M128.62 174.09 C168.89 128.44, 209.91 82.75, 270.99 10.32 M128.62 174.09 C176.8 119.45, 224.82 64.88, 270.99 10.32 M134.27 173.69 C190.24 110.36, 243.18 45.61, 273.35 13.69 M134.27 173.69 C188.47 112.09, 241.75 50.31, 273.35 13.69 M139.25 174.05 C192.95 113.33, 246.11 52.19, 275.06 17.83 M139.25 174.05 C189.66 116.91, 240.54 59.53, 275.06 17.83 M144.9 173.66 C191.79 118.29, 241.7 64.72, 278.08 20.45 M144.9 173.66 C172.94 140.56, 201.02 107.53, 278.08 20.45 M149.89 174.02 C200.61 117.24, 250.4 59.14, 278.47 26.1 M149.89 174.02 C190.13 127.37, 231.3 79.09, 278.47 26.1 M155.53 173.62 C200.77 119.96, 246.93 64.97, 278.21 32.49 M155.53 173.62 C187.58 136.78, 218.86 99.66, 278.21 32.49 M160.52 173.98 C204.11 123.53, 244.72 74.85, 277.95 38.89 M160.52 173.98 C189.7 141.18, 216.23 109.28, 277.95 38.89 M166.16 173.59 C199.28 133.53, 233.3 96.48, 277.69 45.29 M166.16 173.59 C191.89 141.38, 220.56 111.15, 277.69 45.29 M171.15 173.95 C193.24 145.05, 218.17 117.18, 278.08 50.93 M171.15 173.95 C196.85 143.93, 222.01 113.88, 278.08 50.93 M176.79 173.55 C198.34 147.92, 223.6 121.85, 277.82 57.33 M176.79 173.55 C208.19 134.96, 242.05 98.78, 277.82 57.33 M181.78 173.92 C201.34 151.94, 221 126.75, 278.22 62.97 M181.78 173.92 C216.97 133.75, 252.99 91.96, 278.22 62.97 M186.76 174.28 C208.34 149.62, 232.84 125.17, 277.95 69.37 M186.76 174.28 C218.09 138.55, 249.02 102.35, 277.95 69.37 M192.41 173.88 C223.59 137.53, 253.14 103.33, 277.69 75.77 M192.41 173.88 C223.44 140.4, 252.78 105.78, 277.69 75.77 M197.39 174.24 C221.17 146.57, 244.7 118.93, 278.09 81.41 M197.39 174.24 C227.32 141.53, 256.91 107.02, 278.09 81.41 M203.04 173.85 C223.83 153.86, 242.6 131.62, 277.83 87.81 M203.04 173.85 C222.02 150.79, 242.35 129.85, 277.83 87.81 M208.02 174.21 C227.85 148.67, 251.36 124.09, 278.22 93.45 M208.02 174.21 C231.05 147.87, 255.82 120.61, 278.22 93.45 M213.67 173.81 C231.41 151.39, 250.24 132.84, 277.96 99.85 M213.67 173.81 C226.34 158.34, 239.8 143.94, 277.96 99.85 M218.65 174.17 C232.93 157.41, 246.84 139.84, 277.7 106.25 M218.65 174.17 C231.95 159.27, 246.43 141.28, 277.7 106.25 M224.3 173.78 C245.29 150.92, 265.36 126.05, 278.09 111.89 M224.3 173.78 C238.86 157.51, 254.14 139.89, 278.09 111.89 M229.28 174.14 C243.9 155.8, 258.34 139.25, 277.83 118.29 M229.28 174.14 C244.95 155.07, 260.12 137.96, 277.83 118.29 M234.93 173.74 C244.74 161.63, 254.47 150.42, 278.23 123.93 M234.93 173.74 C244.68 163.96, 252.27 152.3, 278.23 123.93 M239.91 174.1 C251.48 160.25, 265.43 146.62, 277.96 130.33 M239.91 174.1 C250.27 161.28, 262.41 150.49, 277.96 130.33 M245.56 173.71 C254.63 160.34, 265.32 147.89, 277.7 136.73 M245.56 173.71 C255.14 162.24, 263.96 153.54, 277.7 136.73 M251.2 173.31 C257.59 163.8, 263.71 156.27, 278.1 142.37 M251.2 173.31 C258.04 165.41, 265.92 156.92, 278.1 142.37 M255.53 174.43 C263.74 166.94, 270.74 155.66, 277.18 149.52 M255.53 174.43 C260.82 168.33, 266.08 161.23, 277.18 149.52" stroke="#b2f2bb" stroke-width="0.5" fill="none"></path><path d="M32 0 M32 0 C115.02 0.58, 198.61 0.37, 244.95 0 M32 0 C94.73 -0.39, 156.91 -1.91, 244.95 0 M244.95 0 C265.19 -1.73, 278.6 11.89, 276.95 32 M244.95 0 C264.39 -0.93, 275.42 8.49, 276.95 32 M276.95 32 C279.34 70.33, 277.98 111, 276.95 140.74 M276.95 32 C278.55 74.94, 278.69 115.55, 276.95 140.74 M276.95 140.74 C277.41 163.81, 264.69 171.36, 244.95 172.74 M276.95 140.74 C275.4 160.82, 265.57 170.72, 244.95 172.74 M244.95 172.74 C194.24 172.7, 145.02 174.85, 32 172.74 M244.95 172.74 C180.82 172.27, 115.32 173.19, 32 172.74 M32 172.74 C12.53 171.46, 1.17 160.65, 0 140.74 M32 172.74 C9.94 174.34, -1.3 161.85, 0 140.74 M0 140.74 C-0.76 114.17, 0.22 84.62, 0 32 M0 140.74 C1.58 111, 0.9 81.76, 0 32 M0 32 C1.52 11.09, 10.67 -0.89, 32 0 M0 32 C0.92 12.84, 10.93 -0.32, 32 0" stroke="#1e1e1e" stroke-width="1" fill="none"></path></g><g transform="translate(1043.4755031572972 214.10850812424155) rotate(0 44.423988342285156 22.5)"><text x="44.423988342285156" y="0" font-family="Virgil, Segoe UI Emoji" font-size="36px" fill="#1e1e1e" text-anchor="middle" style="white-space: pre;" direction="ltr" dominant-baseline="text-before-edge">data</text></g><g stroke-linecap="round" transform="translate(1228.0304031812566 150.30341048503396) rotate(0 138.4771665527211 86.36886656100069)"><path d="M7.86 8.16 C7.86 8.16, 7.86 8.16, 7.86 8.16 M7.86 8.16 C7.86 8.16, 7.86 8.16, 7.86 8.16 M3.66 19.09 C9.12 12.93, 12.3 8.52, 18.1 2.48 M3.66 19.09 C9.11 14.31, 13.47 8.88, 18.1 2.48 M2.75 26.24 C7.6 18.25, 12.35 14.48, 24.4 1.33 M2.75 26.24 C8.08 19.13, 14.6 13.05, 24.4 1.33 M2.48 32.64 C8.92 25.15, 19.17 16.26, 30.7 0.18 M2.48 32.64 C9.27 23.54, 17.28 15.67, 30.7 0.18 M2.88 38.28 C14.16 26.3, 20.78 15.16, 34.37 2.05 M2.88 38.28 C9.4 30.73, 17.13 22.54, 34.37 2.05 M2.62 44.68 C10.51 32.68, 22.53 20.65, 39.36 2.41 M2.62 44.68 C12.82 32.98, 24.23 19.74, 39.36 2.41 M2.36 51.07 C14.9 34.31, 32.68 19.93, 45 2.02 M2.36 51.07 C16.83 35.1, 30.88 17.88, 45 2.02 M2.75 56.72 C16.98 36.3, 36.19 18.2, 49.99 2.38 M2.75 56.72 C13.23 45.59, 23.06 33.92, 49.99 2.38 M2.49 63.11 C19.54 40.47, 37.55 22.57, 55.63 1.98 M2.49 63.11 C16.28 47.87, 28.74 32.24, 55.63 1.98 M2.88 68.76 C25.19 43.15, 48.73 16.08, 60.62 2.34 M2.88 68.76 C26.1 43.14, 47.36 17.66, 60.62 2.34 M2.62 75.16 C21.46 53.45, 38.12 34.21, 66.26 1.95 M2.62 75.16 C25.42 47.23, 50.63 21.02, 66.26 1.95 M2.36 81.55 C23.86 54.77, 48.89 28.25, 71.25 2.31 M2.36 81.55 C24.86 54.68, 47.92 28.93, 71.25 2.31 M2.76 87.2 C23.3 62.67, 49.04 34.08, 76.89 1.91 M2.76 87.2 C28.47 56.8, 55.93 25.88, 76.89 1.91 M2.49 93.59 C23.82 67.22, 48.4 39.87, 81.88 2.27 M2.49 93.59 C26.82 64.55, 52.26 33.97, 81.88 2.27 M2.89 99.24 C28.23 71.54, 53.58 41.81, 87.52 1.88 M2.89 99.24 C22.16 77.37, 41.63 56.26, 87.52 1.88 M2.63 105.64 C22.53 82.46, 41.52 60.14, 92.51 2.24 M2.63 105.64 C35.97 66.98, 70.8 28.65, 92.51 2.24 M2.37 112.03 C37.95 71.07, 74.76 29.01, 98.15 1.85 M2.37 112.03 C23.38 87.72, 45.17 63.57, 98.15 1.85 M2.76 117.68 C34.15 81.97, 64.06 49.29, 103.14 2.21 M2.76 117.68 C31.36 85.79, 58.68 53.77, 103.14 2.21 M2.5 124.07 C36.5 81.51, 72.9 41.42, 108.78 1.81 M2.5 124.07 C40.82 78.15, 80.17 32.59, 108.78 1.81 M2.89 129.72 C35.65 87.22, 72.36 47.74, 113.77 2.17 M2.89 129.72 C40.95 85.02, 81.21 37.87, 113.77 2.17 M2.63 136.11 C29.1 104.29, 57.38 71.34, 119.41 1.78 M2.63 136.11 C44.4 88.74, 85.86 41.44, 119.41 1.78 M2.37 142.51 C38.73 98.8, 77.89 55.14, 124.4 2.14 M2.37 142.51 C41.15 97.58, 78.63 52.82, 124.4 2.14 M1.45 149.67 C30.89 115.23, 61.65 76.62, 130.04 1.74 M1.45 149.67 C27.14 120.17, 53.64 88.98, 130.04 1.74 M3.16 153.8 C41.33 113.73, 76.41 70.26, 135.03 2.1 M3.16 153.8 C51.13 96.01, 101.11 38.8, 135.03 2.1 M4.87 157.93 C49.96 106.61, 93.36 57.32, 140.67 1.71 M4.87 157.93 C58.74 96.46, 111.28 34.59, 140.67 1.71 M6.57 162.07 C50.14 110.81, 95.2 63.47, 145.66 2.07 M6.57 162.07 C57.27 102.5, 108.55 44.21, 145.66 2.07 M9.59 164.69 C64 103.57, 119.65 38.51, 150.65 2.43 M9.59 164.69 C62.31 104.99, 114.25 44.11, 150.65 2.43 M11.96 168.07 C49.78 126.66, 87.66 83.51, 156.29 2.03 M11.96 168.07 C42.39 135.48, 71.79 100.04, 156.29 2.03 M14.97 170.69 C66.26 111.47, 121.3 49.94, 161.28 2.39 M14.97 170.69 C47.64 133.85, 79.61 95.45, 161.28 2.39 M19.31 171.81 C55.89 129.88, 90.61 88.81, 166.92 2 M19.31 171.81 C54.19 129.84, 88.92 90.84, 166.92 2 M23.64 172.92 C67.8 123.56, 109.67 72.89, 171.91 2.36 M23.64 172.92 C81.41 105.78, 140.15 39.22, 171.91 2.36 M27.31 174.79 C79.53 113.34, 131.17 53.25, 177.55 1.96 M27.31 174.79 C70.73 125, 112.82 76.22, 177.55 1.96 M33.61 173.64 C69.29 132.98, 102.88 91.16, 182.54 2.32 M33.61 173.64 C93.6 105.22, 153.08 36.99, 182.54 2.32 M38.6 174 C90.54 114.66, 141.78 53.26, 188.18 1.93 M38.6 174 C72.09 138.43, 104.22 102.16, 188.18 1.93 M44.24 173.61 C101.36 108.97, 160.54 40.16, 193.17 2.29 M44.24 173.61 C86.57 123.76, 129.69 75.62, 193.17 2.29 M49.23 173.97 C104.91 111.92, 159.23 49.13, 198.81 1.9 M49.23 173.97 C103.48 114.34, 155.73 54.41, 198.81 1.9 M54.87 173.57 C102.37 114.98, 154.09 55.06, 203.8 2.26 M54.87 173.57 C108.79 111.44, 163.65 49.81, 203.8 2.26 M59.86 173.93 C89.6 137.99, 121.4 103.27, 209.44 1.86 M59.86 173.93 C99.1 130.12, 136.84 87.21, 209.44 1.86 M64.84 174.29 C97.81 136.79, 130.62 96.53, 214.43 2.22 M64.84 174.29 C111.42 120.77, 158.14 67.81, 214.43 2.22 M70.49 173.9 C107.42 134.61, 141.61 91.04, 220.07 1.83 M70.49 173.9 C128.24 108.64, 185.5 44.79, 220.07 1.83 M75.47 174.26 C133.53 109.37, 190.96 43.08, 225.06 2.19 M75.47 174.26 C111.65 133.34, 147.29 90.23, 225.06 2.19 M81.12 173.87 C128.84 117.68, 176.09 65.97, 230.7 1.79 M81.12 173.87 C138.62 107.27, 197.04 41.47, 230.7 1.79 M86.1 174.23 C128.28 126.83, 171.87 75.3, 235.69 2.15 M86.1 174.23 C121.21 133.53, 156.76 94.63, 235.69 2.15 M91.75 173.83 C125.45 132.62, 161.53 91.42, 241.33 1.76 M91.75 173.83 C129.69 129.85, 167.03 86.04, 241.33 1.76 M96.73 174.19 C132.47 136.22, 165.28 95.06, 246.97 1.36 M96.73 174.19 C127.63 136.02, 160.63 99.06, 246.97 1.36 M102.38 173.8 C144.89 123.74, 188.55 72.01, 251.3 2.48 M102.38 173.8 C150.56 116.99, 200.64 60.21, 251.3 2.48 M107.36 174.16 C165.12 106.42, 223.19 39.86, 256.29 2.84 M107.36 174.16 C146.78 126.72, 188.43 79.38, 256.29 2.84 M113.01 173.76 C165.53 116.53, 215.12 56.25, 260.62 3.95 M113.01 173.76 C157.83 119.92, 202.9 67.55, 260.62 3.95 M117.99 174.12 C152.5 135.35, 183.65 97.82, 264.95 5.07 M117.99 174.12 C169.94 114.93, 221.81 56.16, 264.95 5.07 M123.64 173.73 C170.27 121.95, 215.08 72.14, 267.97 7.69 M123.64 173.73 C162.39 130.03, 199.83 86.29, 267.97 7.69 M128.62 174.09 C166.25 130.45, 203.6 88.53, 270.99 10.32 M128.62 174.09 C175.99 119.47, 222.47 64.73, 270.99 10.32 M134.27 173.69 C175.93 127.96, 215.93 83.89, 273.35 13.69 M134.27 173.69 C186.99 112.6, 238.2 52.35, 273.35 13.69 M139.25 174.05 C178.42 129.83, 215.78 87.09, 275.06 17.83 M139.25 174.05 C190.5 113.01, 241.36 52.82, 275.06 17.83 M144.9 173.66 C173.75 139.75, 205.31 103.62, 278.08 20.45 M144.9 173.66 C178.32 136.35, 210.24 99.59, 278.08 20.45 M149.89 174.02 C196.29 121.18, 242.39 67.07, 278.47 26.1 M149.89 174.02 C202.26 116.56, 252.08 57.05, 278.47 26.1 M155.53 173.62 C190.43 132.13, 228.39 91.96, 278.21 32.49 M155.53 173.62 C200.68 124.39, 242.91 75.3, 278.21 32.49 M160.52 173.98 C184.24 146.79, 210.8 120.72, 277.95 38.89 M160.52 173.98 C200.79 128.24, 240.27 83, 277.95 38.89 M166.16 173.59 C193.58 140.95, 223.32 105.33, 277.69 45.29 M166.16 173.59 C187.35 148.16, 211.12 120.9, 277.69 45.29 M171.15 173.95 C197.45 141.46, 227.89 110.26, 278.08 50.93 M171.15 173.95 C204.18 136.93, 236.9 98.41, 278.08 50.93 M176.79 173.55 C209.21 136.95, 240.9 97.8, 277.82 57.33 M176.79 173.55 C195.56 149.14, 216.88 126.03, 277.82 57.33 M181.78 173.92 C218.27 134.73, 249.21 94.44, 278.22 62.97 M181.78 173.92 C209.11 142.54, 236.36 110.51, 278.22 62.97 M186.76 174.28 C215.85 141.04, 243.74 107.97, 277.95 69.37 M186.76 174.28 C219.87 137.15, 251.84 100.37, 277.95 69.37 M192.41 173.88 C216.84 146.06, 238.66 121.45, 277.69 75.77 M192.41 173.88 C226.31 133.88, 259.21 95.15, 277.69 75.77 M197.39 174.24 C220.43 149.44, 239.45 126.17, 278.09 81.41 M197.39 174.24 C226.41 140.26, 256.32 106.45, 278.09 81.41 M203.04 173.85 C231 138, 261.8 104.06, 277.83 87.81 M203.04 173.85 C218.42 155.45, 234.03 136.56, 277.83 87.81 M208.02 174.21 C226.44 154.75, 242.16 132.48, 278.22 93.45 M208.02 174.21 C233.9 142.85, 259.53 112.62, 278.22 93.45 M213.67 173.81 C227.1 157.32, 244.03 138.98, 277.96 99.85 M213.67 173.81 C230.03 154.78, 247.4 134.18, 277.96 99.85 M218.65 174.17 C238.1 151.74, 257.84 126.85, 277.7 106.25 M218.65 174.17 C242 148, 264.18 123.05, 277.7 106.25 M224.3 173.78 C240.65 154.04, 256.65 134.09, 278.09 111.89 M224.3 173.78 C243.05 152.74, 260.46 130.84, 278.09 111.89 M229.28 174.14 C242.48 159.91, 254.41 145.59, 277.83 118.29 M229.28 174.14 C240.08 161.94, 252.48 148.76, 277.83 118.29 M234.93 173.74 C246.01 157.69, 262.45 145.14, 278.23 123.93 M234.93 173.74 C252.45 155.22, 268.56 134.93, 278.23 123.93 M239.91 174.1 C249.91 160.56, 260.74 148.21, 277.96 130.33 M239.91 174.1 C248.66 163.99, 257.01 152.69, 277.96 130.33 M245.56 173.71 C253.3 163.96, 261.3 156.53, 277.7 136.73 M245.56 173.71 C251.54 166.38, 258.44 158.45, 277.7 136.73 M251.2 173.31 C256.41 165.77, 261.29 159.15, 278.1 142.37 M251.2 173.31 C260.84 163.19, 269.67 152.57, 278.1 142.37 M255.53 174.43 C261.94 166.29, 271.53 157.2, 277.18 149.52 M255.53 174.43 C263.59 166.14, 270.01 158.04, 277.18 149.52" stroke="#b2f2bb" stroke-width="0.5" fill="none"></path><path d="M32 0 M32 0 C108.82 0.29, 186.93 -1.2, 244.95 0 M32 0 C115.1 0.74, 199.9 2.04, 244.95 0 M244.95 0 C264.64 -0.81, 275.62 8.78, 276.95 32 M244.95 0 C267.56 1.99, 274.88 12.33, 276.95 32 M276.95 32 C278.75 64.88, 276.58 94.83, 276.95 140.74 M276.95 32 C277.9 74.27, 276.87 114.11, 276.95 140.74 M276.95 140.74 C275.6 160.98, 265.67 170.98, 244.95 172.74 M276.95 140.74 C275.45 162.08, 268.32 171.76, 244.95 172.74 M244.95 172.74 C201.69 172.06, 158.23 174.94, 32 172.74 M244.95 172.74 C192.81 173.19, 139.54 173.12, 32 172.74 M32 172.74 C10.03 174.13, -1.13 161.88, 0 140.74 M32 172.74 C9.57 170.6, 1.64 160.03, 0 140.74 M0 140.74 C-0.2 101.59, 0.35 67.23, 0 32 M0 140.74 C0.83 114.55, 0.08 87.48, 0 32 M0 32 C0.8 12.56, 10.89 -0.28, 32 0 M0 32 C-1.58 12.01, 10.14 0.3, 32 0" stroke="#1e1e1e" stroke-width="1" fill="none"></path></g><g transform="translate(1327.969582978606 214.17227704603465) rotate(0 38.537986755371094 22.5)"><text x="38.537986755371094" y="0" font-family="Virgil, Segoe UI Emoji" font-size="36px" fill="#1e1e1e" text-anchor="middle" style="white-space: pre;" direction="ltr" dominant-baseline="text-before-edge">next</text></g><g stroke-linecap="round" transform="translate(1650.436338349356 155.40147367286852) rotate(0 138.4771665527212 86.36886656100069)"><path d="M7.86 8.16 C7.86 8.16, 7.86 8.16, 7.86 8.16 M7.86 8.16 C7.86 8.16, 7.86 8.16, 7.86 8.16 M3.66 19.09 C8.7 12.87, 13.6 8.7, 18.1 2.48 M3.66 19.09 C5.96 16.63, 9.59 11.58, 18.1 2.48 M2.75 26.24 C9.61 16.57, 14.78 8.85, 24.4 1.33 M2.75 26.24 C7.92 19.86, 11.83 16.14, 24.4 1.33 M2.48 32.64 C9.53 23.81, 17.27 13.51, 30.7 0.18 M2.48 32.64 C12.12 23.09, 20.26 11.95, 30.7 0.18 M2.88 38.28 C11.85 29.79, 21.91 18.35, 34.37 2.05 M2.88 38.28 C13.42 26.1, 25.81 13.73, 34.37 2.05 M2.62 44.68 C15.22 32.98, 23.78 18.38, 39.36 2.41 M2.62 44.68 C15.87 30.23, 26.73 17.04, 39.36 2.41 M2.36 51.07 C13.71 38.46, 21.45 26.89, 45 2.02 M2.36 51.07 C16.95 35.56, 30.41 19.01, 45 2.02 M2.75 56.72 C16.02 43.95, 26.28 29.02, 49.99 2.38 M2.75 56.72 C20.16 36.04, 37.8 17.77, 49.99 2.38 M2.49 63.11 C18.85 46.7, 32.45 27.16, 55.63 1.98 M2.49 63.11 C12.49 51.31, 24.37 38.3, 55.63 1.98 M2.88 68.76 C14.28 54.27, 27.61 39.14, 60.62 2.34 M2.88 68.76 C19.2 47.63, 37.68 27.88, 60.62 2.34 M2.62 75.16 C20.18 52.6, 39.95 30.69, 66.26 1.95 M2.62 75.16 C15.94 60.46, 28.97 45.25, 66.26 1.95 M2.36 81.55 C26.94 55.48, 50.15 30, 71.25 2.31 M2.36 81.55 C18.62 60.85, 37.22 41.02, 71.25 2.31 M2.76 87.2 C33.11 52.58, 63.45 17.42, 76.89 1.91 M2.76 87.2 C19.36 68.01, 36.92 48.39, 76.89 1.91 M2.49 93.59 C32.33 62.5, 59.38 28.38, 81.88 2.27 M2.49 93.59 C21.9 73.2, 38.97 53.02, 81.88 2.27 M2.89 99.24 C23.44 74.07, 47.09 48.92, 87.52 1.88 M2.89 99.24 C31.18 66.37, 59.88 33.58, 87.52 1.88 M2.63 105.64 C32.39 69.9, 64.98 37.4, 92.51 2.24 M2.63 105.64 C27.06 76.58, 51.7 47.98, 92.51 2.24 M2.37 112.03 C38.96 67.4, 79.85 24.67, 98.15 1.85 M2.37 112.03 C27.27 82.31, 53.08 53.19, 98.15 1.85 M2.76 117.68 C35.76 78.03, 73.33 35.57, 103.14 2.21 M2.76 117.68 C37.62 78.64, 71.63 38.76, 103.14 2.21 M2.5 124.07 C36.49 88.71, 65.65 53.42, 108.78 1.81 M2.5 124.07 C39.02 82.63, 74.42 41.09, 108.78 1.81 M2.89 129.72 C44.96 78.7, 87.94 30.72, 113.77 2.17 M2.89 129.72 C28.71 101.79, 53.46 73.39, 113.77 2.17 M2.63 136.11 C40.43 96.77, 73.48 53.28, 119.41 1.78 M2.63 136.11 C39.55 92.51, 77.84 50.55, 119.41 1.78 M2.37 142.51 C27.59 112.29, 51.65 84.77, 124.4 2.14 M2.37 142.51 C28.57 114.52, 53.54 85.28, 124.4 2.14 M1.45 149.67 C40.3 104.16, 82.13 57.84, 130.04 1.74 M1.45 149.67 C45.75 98.51, 91.57 45.92, 130.04 1.74 M3.16 153.8 C39.92 110.81, 77.98 65.01, 135.03 2.1 M3.16 153.8 C31.15 121.61, 60.3 89.35, 135.03 2.1 M4.87 157.93 C39.75 117.47, 72.58 78.58, 140.67 1.71 M4.87 157.93 C39.59 116.87, 73.99 74.77, 140.67 1.71 M6.57 162.07 C53.47 111.67, 97.65 59.39, 145.66 2.07 M6.57 162.07 C48.14 116.03, 88.54 70.45, 145.66 2.07 M9.59 164.69 C44.65 126.64, 77.75 85.19, 150.65 2.43 M9.59 164.69 C43.18 128.08, 76.01 89.76, 150.65 2.43 M11.96 168.07 C56.57 118.44, 99.29 68.57, 156.29 2.03 M11.96 168.07 C53.85 119.21, 96.49 70.5, 156.29 2.03 M14.97 170.69 C48.15 130.47, 82.11 93.31, 161.28 2.39 M14.97 170.69 C63.44 113.94, 111.57 58.46, 161.28 2.39 M19.31 171.81 C53.29 132.7, 87.15 94.8, 166.92 2 M19.31 171.81 C49.72 137.3, 81.34 101.87, 166.92 2 M23.64 172.92 C69.05 120.86, 116.19 67.5, 171.91 2.36 M23.64 172.92 C79.95 108.18, 135.83 42.53, 171.91 2.36 M27.31 174.79 C83.35 105.85, 143.37 40.88, 177.55 1.96 M27.31 174.79 C63.18 134.65, 97.22 93.97, 177.55 1.96 M33.61 173.64 C77.76 127.84, 118.28 79.22, 182.54 2.32 M33.61 173.64 C75.86 125.72, 118.15 77.78, 182.54 2.32 M38.6 174 C82.19 126, 125.42 74.59, 188.18 1.93 M38.6 174 C82.06 124.26, 125.82 74.18, 188.18 1.93 M44.24 173.61 C80.39 132.98, 116.94 92.41, 193.17 2.29 M44.24 173.61 C88.66 120.58, 132.78 69.92, 193.17 2.29 M49.23 173.97 C102.15 111.38, 157.43 50.66, 198.81 1.9 M49.23 173.97 C98.26 117.46, 147.16 61.48, 198.81 1.9 M54.87 173.57 C107.72 108.63, 162.65 46.12, 203.8 2.26 M54.87 173.57 C110.58 108.53, 167.08 44.05, 203.8 2.26 M59.86 173.93 C118.72 106.58, 178.25 41.49, 209.44 1.86 M59.86 173.93 C120.54 105.18, 178.94 36.15, 209.44 1.86 M64.84 174.29 C122.75 107.66, 181.25 40.5, 214.43 2.22 M64.84 174.29 C99.58 131.96, 135.04 92.63, 214.43 2.22 M70.49 173.9 C118.79 120.52, 163.45 69.8, 220.07 1.83 M70.49 173.9 C129.6 105.26, 189.59 37.43, 220.07 1.83 M75.47 174.26 C120.83 123.96, 163.79 74.83, 225.06 2.19 M75.47 174.26 C111.56 134.9, 146.77 93.3, 225.06 2.19 M81.12 173.87 C115.27 132.26, 151.22 94.07, 230.7 1.79 M81.12 173.87 C128.4 120.96, 174.59 67.12, 230.7 1.79 M86.1 174.23 C117.8 138.96, 148.27 102.43, 235.69 2.15 M86.1 174.23 C137.76 113.56, 189.71 55.32, 235.69 2.15 M91.75 173.83 C125.45 139.63, 155.33 105.37, 241.33 1.76 M91.75 173.83 C148.28 107.95, 204.85 42.82, 241.33 1.76 M96.73 174.19 C147.74 114.11, 201.68 54.94, 246.97 1.36 M96.73 174.19 C151.92 109.09, 208.1 44.51, 246.97 1.36 M102.38 173.8 C141.05 129.83, 177.34 87.85, 251.3 2.48 M102.38 173.8 C152.89 116.73, 203.48 57.62, 251.3 2.48 M107.36 174.16 C142.68 131.73, 180.27 91.16, 256.29 2.84 M107.36 174.16 C156.25 119.25, 202.66 65.22, 256.29 2.84 M113.01 173.76 C161.13 123.25, 204.25 69.13, 260.62 3.95 M113.01 173.76 C163.63 114.74, 214.84 55.41, 260.62 3.95 M117.99 174.12 C160.47 122.69, 204.52 70.81, 264.95 5.07 M117.99 174.12 C152.5 133.25, 188.07 91.91, 264.95 5.07 M123.64 173.73 C167.91 118.69, 216.2 69.35, 267.97 7.69 M123.64 173.73 C166.13 123.82, 211.09 73.83, 267.97 7.69 M128.62 174.09 C169.4 127.17, 207.28 82.56, 270.99 10.32 M128.62 174.09 C181.83 114.44, 235.06 53.1, 270.99 10.32 M134.27 173.69 C178.7 122.83, 222.66 71.5, 273.35 13.69 M134.27 173.69 C175.78 125.13, 218.9 76.67, 273.35 13.69 M139.25 174.05 C192.23 113.32, 245.35 49.68, 275.06 17.83 M139.25 174.05 C167.62 141.29, 198.1 106.51, 275.06 17.83 M144.9 173.66 C196.56 116.76, 249.58 57.64, 278.08 20.45 M144.9 173.66 C194.35 115.9, 244.54 59.31, 278.08 20.45 M149.89 174.02 C177.21 143.62, 201.12 113.21, 278.47 26.1 M149.89 174.02 C180.51 139.07, 212.2 102.59, 278.47 26.1 M155.53 173.62 C188.58 136.81, 217.57 102.03, 278.21 32.49 M155.53 173.62 C198.99 122.28, 244.82 71.45, 278.21 32.49 M160.52 173.98 C199.05 126.95, 236.22 84.52, 277.95 38.89 M160.52 173.98 C208.37 119.72, 254.03 65.91, 277.95 38.89 M166.16 173.59 C198.98 136.04, 233.84 99.6, 277.69 45.29 M166.16 173.59 C191.82 143.94, 218.67 113.31, 277.69 45.29 M171.15 173.95 C208.92 129.71, 249.26 87.14, 278.08 50.93 M171.15 173.95 C214.4 125.4, 255.21 76.89, 278.08 50.93 M176.79 173.55 C212.98 127.85, 252.11 87.02, 277.82 57.33 M176.79 173.55 C214.15 130.36, 251.77 87.28, 277.82 57.33 M181.78 173.92 C209.21 140.4, 241.13 106.9, 278.22 62.97 M181.78 173.92 C201.89 149.85, 222.75 126.7, 278.22 62.97 M186.76 174.28 C220.44 137.94, 251.34 99.55, 277.95 69.37 M186.76 174.28 C211.33 144.15, 237.93 115.11, 277.95 69.37 M192.41 173.88 C223.85 135.33, 257.18 100.73, 277.69 75.77 M192.41 173.88 C210.94 153.29, 229.45 133.07, 277.69 75.77 M197.39 174.24 C215.28 152.81, 234.78 131.06, 278.09 81.41 M197.39 174.24 C220.77 146.29, 245.64 119.37, 278.09 81.41 M203.04 173.85 C231.98 138.62, 263.85 104.5, 277.83 87.81 M203.04 173.85 C219.28 156.12, 235.86 138.02, 277.83 87.81 M208.02 174.21 C231.66 147.86, 259.14 118.53, 278.22 93.45 M208.02 174.21 C226.2 152.81, 243.63 132.8, 278.22 93.45 M213.67 173.81 C239.03 145.57, 260.94 119.72, 277.96 99.85 M213.67 173.81 C227.9 158.06, 242.32 141.64, 277.96 99.85 M218.65 174.17 C231.16 159.46, 245.76 141.21, 277.7 106.25 M218.65 174.17 C231.71 158.66, 244.66 142.45, 277.7 106.25 M224.3 173.78 C240.33 154.26, 260.5 131.85, 278.09 111.89 M224.3 173.78 C239.88 156.28, 253.86 138.22, 278.09 111.89 M229.28 174.14 C244.06 155.52, 263.14 136.7, 277.83 118.29 M229.28 174.14 C248.85 151.94, 268.88 130.12, 277.83 118.29 M234.93 173.74 C246.86 160.7, 261.25 145.89, 278.23 123.93 M234.93 173.74 C245.72 160.75, 254.82 148.91, 278.23 123.93 M239.91 174.1 C250.44 160.28, 261.16 147.66, 277.96 130.33 M239.91 174.1 C255.38 156.01, 268.74 139.31, 277.96 130.33 M245.56 173.71 C257.8 161.34, 266.45 150.69, 277.7 136.73 M245.56 173.71 C251.31 165.96, 259.02 158.86, 277.7 136.73 M251.2 173.31 C257.33 166.96, 265.44 159.87, 278.1 142.37 M251.2 173.31 C258.43 163.1, 267.34 154.54, 278.1 142.37 M255.53 174.43 C258.21 170.06, 265.02 165.86, 277.18 149.52 M255.53 174.43 C260.66 167.61, 266.24 161.42, 277.18 149.52" stroke="#b2f2bb" stroke-width="0.5" fill="none"></path><path d="M32 0 M32 0 C106.82 0.87, 182.77 1.65, 244.95 0 M32 0 C101.09 0.24, 172.04 -0.08, 244.95 0 M244.95 0 C265.33 -0.45, 275.2 10.55, 276.95 32 M244.95 0 C264.97 1.34, 275.96 11, 276.95 32 M276.95 32 C278.22 70.81, 277.93 110.31, 276.95 140.74 M276.95 32 C277.27 54.48, 276.93 77.08, 276.95 140.74 M276.95 140.74 C278.43 161.68, 264.76 171.88, 244.95 172.74 M276.95 140.74 C277.13 160.38, 265.29 173.43, 244.95 172.74 M244.95 172.74 C182 173.39, 120.67 171.64, 32 172.74 M244.95 172.74 C162.86 174.34, 79.81 174.07, 32 172.74 M32 172.74 C9.17 173.03, 1.57 163.27, 0 140.74 M32 172.74 C12.13 173.05, 2.23 164.28, 0 140.74 M0 140.74 C1.38 99.29, 0 57.76, 0 32 M0 140.74 C1.17 111.17, 1.22 81.99, 0 32 M0 32 C0.52 10.85, 10.55 -1.31, 32 0 M0 32 C1.16 10.22, 9.75 -1.57, 32 0" stroke="#1e1e1e" stroke-width="1" fill="none"></path></g><g transform="translate(1744.4895165597918 219.2703402338692) rotate(0 44.423988342285156 22.5)"><text x="44.423988342285156" y="0" font-family="Virgil, Segoe UI Emoji" font-size="36px" fill="#1e1e1e" text-anchor="middle" style="white-space: pre;" direction="ltr" dominant-baseline="text-before-edge">data</text></g><g stroke-linecap="round" transform="translate(1929.0444165837512 155.46524259466162) rotate(0 138.4771665527212 86.36886656100069)"><path d="M7.86 8.16 C7.86 8.16, 7.86 8.16, 7.86 8.16 M7.86 8.16 C7.86 8.16, 7.86 8.16, 7.86 8.16 M3.66 19.09 C5.88 12.62, 12.18 7.95, 18.1 2.48 M3.66 19.09 C9.6 13.11, 15.93 6.1, 18.1 2.48 M2.75 26.24 C6.39 22.5, 12.78 16.11, 24.4 1.33 M2.75 26.24 C7.17 20.82, 11.3 15.11, 24.4 1.33 M2.48 32.64 C11.72 24.77, 18.38 14.51, 30.7 0.18 M2.48 32.64 C13.65 19.93, 24.52 6.87, 30.7 0.18 M2.88 38.28 C15.58 23.28, 24.93 9.27, 34.37 2.05 M2.88 38.28 C13.21 25.26, 22.93 14.48, 34.37 2.05 M2.62 44.68 C15.51 30.15, 26.99 19.06, 39.36 2.41 M2.62 44.68 C11.06 34.02, 21.09 24.54, 39.36 2.41 M2.36 51.07 C13.54 38.46, 25.29 28.14, 45 2.02 M2.36 51.07 C18.91 32.38, 35.88 12.72, 45 2.02 M2.75 56.72 C21.76 36.08, 39.07 16.74, 49.99 2.38 M2.75 56.72 C12.29 44.59, 22.76 33.63, 49.99 2.38 M2.49 63.11 C19.06 41.71, 37.94 19.16, 55.63 1.98 M2.49 63.11 C18.43 43.66, 36.5 23.76, 55.63 1.98 M2.88 68.76 C22.73 47.3, 42.26 22.46, 60.62 2.34 M2.88 68.76 C14.49 56.21, 25.86 41.62, 60.62 2.34 M2.62 75.16 C17.15 56.06, 34.67 38.26, 66.26 1.95 M2.62 75.16 C21.23 54.29, 39.77 33.7, 66.26 1.95 M2.36 81.55 C23.36 56.85, 46.74 28, 71.25 2.31 M2.36 81.55 C18.04 64.64, 33.17 47.21, 71.25 2.31 M2.76 87.2 C22.65 61.74, 45.88 36.15, 76.89 1.91 M2.76 87.2 C23.59 63.32, 44.83 40.48, 76.89 1.91 M2.49 93.59 C30.16 58.26, 59.77 26.59, 81.88 2.27 M2.49 93.59 C27.47 65.08, 52.02 35.9, 81.88 2.27 M2.89 99.24 C24.36 74.74, 46.4 49.72, 87.52 1.88 M2.89 99.24 C30.42 67.04, 58.42 35.72, 87.52 1.88 M2.63 105.64 C26.82 75.25, 52.61 45.34, 92.51 2.24 M2.63 105.64 C24.12 82.58, 43.82 59.25, 92.51 2.24 M2.37 112.03 C26.1 84.29, 49.82 53.6, 98.15 1.85 M2.37 112.03 C24.6 88.77, 45.38 62.89, 98.15 1.85 M2.76 117.68 C42.71 72.29, 80.01 27.74, 103.14 2.21 M2.76 117.68 C37.36 77.27, 70.37 39.7, 103.14 2.21 M2.5 124.07 C36.7 84.86, 67.59 48.37, 108.78 1.81 M2.5 124.07 C30.08 94.46, 55.23 64.42, 108.78 1.81 M2.89 129.72 C26.38 100.2, 52.44 74.39, 113.77 2.17 M2.89 129.72 C41.65 83.67, 79.56 40.08, 113.77 2.17 M2.63 136.11 C43.32 90.79, 83.24 45.51, 119.41 1.78 M2.63 136.11 C29.03 103.15, 58.17 71, 119.41 1.78 M2.37 142.51 C26.22 112.97, 53.42 86.28, 124.4 2.14 M2.37 142.51 C48.29 88.94, 95.16 35, 124.4 2.14 M1.45 149.67 C46.28 98.63, 89.4 46.01, 130.04 1.74 M1.45 149.67 C42.84 102.15, 86.23 52.8, 130.04 1.74 M3.16 153.8 C53.01 94.61, 105.29 35.05, 135.03 2.1 M3.16 153.8 C36.58 114.48, 72.35 74.74, 135.03 2.1 M4.87 157.93 C45.25 112.55, 88.11 65.53, 140.67 1.71 M4.87 157.93 C58.55 97.31, 110.4 37.58, 140.67 1.71 M6.57 162.07 C50.25 110.15, 93.56 61.41, 145.66 2.07 M6.57 162.07 C41.26 119.97, 78.22 79.56, 145.66 2.07 M9.59 164.69 C64.36 100.05, 120.07 36.04, 150.65 2.43 M9.59 164.69 C64.42 102.51, 117.5 41.35, 150.65 2.43 M11.96 168.07 C60.45 111.44, 109.27 55, 156.29 2.03 M11.96 168.07 C61.4 110.49, 112 54.22, 156.29 2.03 M14.97 170.69 C44.15 137.99, 73.54 103.92, 161.28 2.39 M14.97 170.69 C47.38 133.02, 81.1 95.76, 161.28 2.39 M19.31 171.81 C60.72 121.11, 104.73 70.45, 166.92 2 M19.31 171.81 C65.25 118.55, 110.69 64.8, 166.92 2 M23.64 172.92 C76.18 114.38, 124.94 56.27, 171.91 2.36 M23.64 172.92 C73.14 119.59, 120.57 63.89, 171.91 2.36 M27.31 174.79 C64.33 129.59, 103.58 87.12, 177.55 1.96 M27.31 174.79 C71.34 124.58, 114.84 75.37, 177.55 1.96 M33.61 173.64 C88.79 107.53, 144.11 43.15, 182.54 2.32 M33.61 173.64 C68.61 134.46, 102.63 94.15, 182.54 2.32 M38.6 174 C96.4 107.55, 152.17 41.26, 188.18 1.93 M38.6 174 C71 136.77, 104.43 99.74, 188.18 1.93 M44.24 173.61 C94.66 115.17, 146.37 56.3, 193.17 2.29 M44.24 173.61 C75.61 138.64, 105.54 103.78, 193.17 2.29 M49.23 173.97 C84.43 132.38, 121.12 91, 198.81 1.9 M49.23 173.97 C102.03 112.93, 154.45 52.22, 198.81 1.9 M54.87 173.57 C89.8 138.09, 119.69 98.72, 203.8 2.26 M54.87 173.57 C91.75 132.11, 126.39 92.76, 203.8 2.26 M59.86 173.93 C105.85 120.06, 150.58 69.4, 209.44 1.86 M59.86 173.93 C116.34 110.03, 169.72 47.2, 209.44 1.86 M64.84 174.29 C100.9 133.18, 140.25 90.21, 214.43 2.22 M64.84 174.29 C95.33 138.37, 125.73 104.74, 214.43 2.22 M70.49 173.9 C108.69 129.32, 145.3 86.4, 220.07 1.83 M70.49 173.9 C109.52 128.04, 148.95 82.88, 220.07 1.83 M75.47 174.26 C105.39 137.87, 136.52 101.99, 225.06 2.19 M75.47 174.26 C129.75 112.89, 184.47 50.14, 225.06 2.19 M81.12 173.87 C118.94 128.46, 155.79 85.73, 230.7 1.79 M81.12 173.87 C121.64 127.01, 163.63 79.21, 230.7 1.79 M86.1 174.23 C142.34 111.12, 196.9 49.05, 235.69 2.15 M86.1 174.23 C117.35 134.5, 150.81 97.53, 235.69 2.15 M91.75 173.83 C139.06 118.74, 185.79 64.92, 241.33 1.76 M91.75 173.83 C142.52 116.93, 191.88 58.93, 241.33 1.76 M96.73 174.19 C142.26 122.13, 186.79 68.43, 246.97 1.36 M96.73 174.19 C138.74 125.25, 181.95 77.66, 246.97 1.36 M102.38 173.8 C149.29 119.6, 194.68 67.38, 251.3 2.48 M102.38 173.8 C160.65 106.88, 220.49 38.47, 251.3 2.48 M107.36 174.16 C149.9 123.91, 192.19 77.15, 256.29 2.84 M107.36 174.16 C151.11 123.12, 193.47 75.29, 256.29 2.84 M113.01 173.76 C163.84 118.72, 212.54 59.99, 260.62 3.95 M113.01 173.76 C166.05 114.27, 218.15 53.83, 260.62 3.95 M117.99 174.12 C164.98 120.66, 214.21 64.7, 264.95 5.07 M117.99 174.12 C174.48 109.75, 230.73 45.21, 264.95 5.07 M123.64 173.73 C151.73 140.37, 179.64 104.27, 267.97 7.69 M123.64 173.73 C165.53 123.74, 208.46 75.43, 267.97 7.69 M128.62 174.09 C170.57 127.32, 207.27 81.77, 270.99 10.32 M128.62 174.09 C179.23 116.7, 228.14 59.17, 270.99 10.32 M134.27 173.69 C178.74 124.4, 220.42 73.26, 273.35 13.69 M134.27 173.69 C169.92 134.2, 204.57 93.81, 273.35 13.69 M139.25 174.05 C187.29 117.94, 238.51 58.79, 275.06 17.83 M139.25 174.05 C188.98 115.93, 237.72 58.37, 275.06 17.83 M144.9 173.66 C194.54 117.42, 241.38 60.27, 278.08 20.45 M144.9 173.66 C179.54 132, 215.54 92.36, 278.08 20.45 M149.89 174.02 C184.96 133.83, 219.7 91.71, 278.47 26.1 M149.89 174.02 C186.15 133.18, 223.05 92.21, 278.47 26.1 M155.53 173.62 C192.7 132.98, 226.49 90.48, 278.21 32.49 M155.53 173.62 C191.25 131.95, 227.55 90.19, 278.21 32.49 M160.52 173.98 C190.01 141.98, 215.11 113.52, 277.95 38.89 M160.52 173.98 C196.13 134.96, 229.88 94.75, 277.95 38.89 M166.16 173.59 C196 135.34, 230 97.57, 277.69 45.29 M166.16 173.59 C202.07 132.08, 237.85 90.28, 277.69 45.29 M171.15 173.95 C204.37 135.82, 234.35 101.24, 278.08 50.93 M171.15 173.95 C203.37 139.17, 233.45 102.71, 278.08 50.93 M176.79 173.55 C198.68 150.17, 217.72 127.03, 277.82 57.33 M176.79 173.55 C202.22 144.55, 228.03 112.67, 277.82 57.33 M181.78 173.92 C212.65 136.19, 247.74 97.75, 278.22 62.97 M181.78 173.92 C212.65 137.99, 241.79 103.87, 278.22 62.97 M186.76 174.28 C219.01 137.52, 251.55 99.15, 277.95 69.37 M186.76 174.28 C207.58 151.29, 227.32 127.43, 277.95 69.37 M192.41 173.88 C210.49 150.88, 231.12 128.61, 277.69 75.77 M192.41 173.88 C215.77 144.6, 241.12 115.78, 277.69 75.77 M197.39 174.24 C218.2 148.46, 241.32 123.92, 278.09 81.41 M197.39 174.24 C218.63 150.78, 238.22 126.29, 278.09 81.41 M203.04 173.85 C218.3 152.08, 235.84 132.29, 277.83 87.81 M203.04 173.85 C227.45 146.34, 249.83 118.45, 277.83 87.81 M208.02 174.21 C233.58 141.61, 263.43 111.92, 278.22 93.45 M208.02 174.21 C224.52 155.27, 240.42 138.33, 278.22 93.45 M213.67 173.81 C227.85 155.27, 246.26 137.92, 277.96 99.85 M213.67 173.81 C234.63 148.64, 258.2 122.19, 277.96 99.85 M218.65 174.17 C238.13 150.73, 262.71 126.03, 277.7 106.25 M218.65 174.17 C237.92 153.7, 256.09 130.7, 277.7 106.25 M224.3 173.78 C240.72 154.85, 260.21 135.95, 278.09 111.89 M224.3 173.78 C241.8 154.47, 258.76 134.14, 278.09 111.89 M229.28 174.14 C246.84 156.38, 261.54 138.27, 277.83 118.29 M229.28 174.14 C244.97 155.27, 261.55 135.97, 277.83 118.29 M234.93 173.74 C249.65 153.86, 268.97 136.54, 278.23 123.93 M234.93 173.74 C245.03 161.85, 256.03 151.19, 278.23 123.93 M239.91 174.1 C250.9 163.48, 259.09 154.65, 277.96 130.33 M239.91 174.1 C248.06 164.75, 256.21 157.63, 277.96 130.33 M245.56 173.71 C252.34 162.34, 261.82 151.45, 277.7 136.73 M245.56 173.71 C253.05 163.95, 261.01 154.76, 277.7 136.73 M251.2 173.31 C261.03 163.77, 271.48 148.97, 278.1 142.37 M251.2 173.31 C257.55 165.04, 264.66 155.85, 278.1 142.37 M255.53 174.43 C261.71 164.14, 270.48 156.63, 277.18 149.52 M255.53 174.43 C261.13 169.01, 265.64 163.07, 277.18 149.52" stroke="#b2f2bb" stroke-width="0.5" fill="none"></path><path d="M32 0 M32 0 C105.76 -0.24, 179.03 -3.03, 244.95 0 M32 0 C113.9 -1.15, 195.86 -1, 244.95 0 M244.95 0 C265.14 1.16, 276.09 10.95, 276.95 32 M244.95 0 C267.69 -0.99, 275.71 12.66, 276.95 32 M276.95 32 C275.89 61.78, 279.19 93.83, 276.95 140.74 M276.95 32 C277.98 63.67, 276.48 95.31, 276.95 140.74 M276.95 140.74 C277.1 160.6, 265.42 173.34, 244.95 172.74 M276.95 140.74 C276.79 162.28, 266.76 171.97, 244.95 172.74 M244.95 172.74 C179.38 171.42, 112.39 172, 32 172.74 M244.95 172.74 C183.99 171.98, 125.03 172.38, 32 172.74 M32 172.74 C11.94 173.01, 1.94 163.99, 0 140.74 M32 172.74 C12.55 172.31, 0 163.42, 0 140.74 M0 140.74 C-0.52 106.92, 1.74 76.24, 0 32 M0 140.74 C-0.54 111.97, -0.86 82.36, 0 32 M0 32 C1.01 10.28, 9.87 -1.36, 32 0 M0 32 C-0.6 10.21, 8.79 1.94, 32 0" stroke="#1e1e1e" stroke-width="1" fill="none"></path></g><g transform="translate(2028.983596381101 219.3341091556623) rotate(0 38.537986755371094 22.5)"><text x="38.537986755371094" y="0" font-family="Virgil, Segoe UI Emoji" font-size="36px" fill="#1e1e1e" text-anchor="middle" style="white-space: pre;" direction="ltr" dominant-baseline="text-before-edge">next</text></g><g stroke-linecap="round"><g transform="translate(1514.0385767058128 238.56737733501228) rotate(0 53.84085933708684 -0.904940512856399)"><path d="M-0.19 0.05 C18.23 -0.14, 91.13 -0.01, 109.43 -0.28 M-1.75 -0.96 C16.7 -1.54, 90.48 -1.94, 109.02 -1.85" stroke="#1e1e1e" stroke-width="1" fill="none"></path></g><g transform="translate(1514.0385767058128 238.56737733501228) rotate(0 53.84085933708684 -0.904940512856399)"><path d="M80.93 10.15 C88.43 8.31, 92.18 5.2, 110.63 -0.54 M80.04 7.76 C86.61 5.3, 93.44 2.6, 108.36 -1.85" stroke="#1e1e1e" stroke-width="1" fill="none"></path></g><g transform="translate(1514.0385767058128 238.56737733501228) rotate(0 53.84085933708684 -0.904940512856399)"><path d="M80.9 -10.37 C88.56 -7.9, 92.31 -6.7, 110.63 -0.54 M80.02 -12.76 C86.63 -10.52, 93.47 -8.5, 108.36 -1.85" stroke="#1e1e1e" stroke-width="1" fill="none"></path></g></g><mask></mask><g stroke-linecap="round"><g transform="translate(2230.088688616503 238.70826987102532) rotate(0 54.23633078190619 -0.1503321880809949)"><path d="M-0.68 -1.2 C17.63 -1.24, 90.82 -0.98, 109.15 -1.2 M1.16 0.79 C19.44 1.04, 90.62 0.84, 108.59 0.4" stroke="#1e1e1e" stroke-width="1" fill="none"></path></g><g transform="translate(2230.088688616503 238.70826987102532) rotate(0 54.23633078190619 -0.1503321880809949)"><path d="M78.53 12.23 C87.65 10.06, 92.31 6.67, 109.2 0.95 M79.57 11.01 C90.04 6.44, 100.85 4.04, 108.23 0.28" stroke="#1e1e1e" stroke-width="1" fill="none"></path></g><g transform="translate(2230.088688616503 238.70826987102532) rotate(0 54.23633078190619 -0.1503321880809949)"><path d="M78.29 -8.29 C87.31 -5.46, 92.02 -3.86, 109.2 0.95 M79.33 -9.51 C89.96 -6.91, 100.85 -2.15, 108.23 0.28" stroke="#1e1e1e" stroke-width="1" fill="none"></path></g></g><mask></mask><g transform="translate(2357.8120482151307 216.8696711615546) rotate(0 28.097984313964844 22.5)"><text x="0" y="0" font-family="Virgil, Segoe UI Emoji" font-size="36px" fill="#1e1e1e" text-anchor="start" style="white-space: pre;" direction="ltr" dominant-baseline="text-before-edge">null</text></g><g stroke-linecap="round" transform="translate(238.48752543069725 21.725279666530923) rotate(0 295.69555842928844 222.64277720794098)"><path d="M269.81 1.39 C291.74 -3.62, 317.71 -0.37, 340.83 2.27 C363.94 4.91, 386.62 10.28, 408.5 17.23 C430.39 24.19, 453.12 33.32, 472.13 43.99 C491.15 54.66, 507.7 67.52, 522.59 81.26 C537.49 94.99, 551.06 110.58, 561.5 126.42 C571.95 142.25, 580.16 159.21, 585.27 176.28 C590.38 193.34, 592.99 211.2, 592.14 228.79 C591.3 246.39, 586.85 264.47, 580.2 281.84 C573.55 299.21, 564 317.25, 552.26 332.98 C540.52 348.72, 525.88 363.43, 509.77 376.26 C493.66 389.08, 475.27 400.43, 455.62 409.92 C435.96 419.41, 414.05 427.52, 391.87 433.2 C369.69 438.87, 345.97 442.26, 322.53 443.99 C299.09 445.71, 274.66 446.19, 251.21 443.54 C227.75 440.9, 203.63 435.11, 181.78 428.1 C159.93 421.08, 138.95 412.04, 120.08 401.44 C101.22 390.85, 83.58 378.11, 68.57 364.5 C53.56 350.89, 40.4 335.72, 30 319.79 C19.61 303.87, 11.23 286.39, 6.2 268.94 C1.16 251.49, -1.02 232.86, -0.21 215.09 C0.6 197.32, 4.73 179.5, 11.07 162.34 C17.42 145.18, 26.3 127.41, 37.87 112.14 C49.43 96.88, 64.17 83.5, 80.47 70.74 C96.78 57.99, 115.79 45.25, 135.68 35.59 C155.56 25.93, 176.55 18.51, 199.79 12.77 C223.02 7.03, 261.22 2.64, 275.07 1.15 C288.92 -0.35, 282.55 0.33, 282.89 3.82" stroke="#1e1e1e" stroke-width="1.5" fill="none" stroke-dasharray="8 9"></path></g><g stroke-linecap="round" transform="translate(929.1973676680449 10) rotate(0 295.6955584292883 222.64277720794098)"><path d="M252.39 2.9 C273.94 -2.96, 299.98 -0.26, 323.16 1.38 C346.33 3.02, 369.14 7, 391.45 12.74 C413.75 18.49, 436.99 26.3, 457 35.85 C477.02 45.4, 495.62 57.16, 511.54 70.05 C527.47 82.93, 541.13 97.74, 552.54 113.14 C563.96 128.54, 573.74 145.16, 580.04 162.44 C586.35 179.71, 589.58 198.91, 590.37 216.77 C591.17 234.63, 589.67 252.21, 584.83 269.6 C579.98 286.98, 571.63 305.15, 561.31 321.07 C551 336.99, 537.9 351.71, 522.92 365.13 C507.93 378.55, 490.61 390.91, 471.41 401.58 C452.21 412.25, 429.73 422.16, 407.72 429.14 C385.71 436.13, 362.51 440.98, 339.35 443.51 C316.19 446.03, 292.2 446.04, 268.76 444.29 C245.32 442.55, 221.06 438.73, 198.71 433.03 C176.37 427.33, 154.44 419.83, 134.67 410.06 C114.9 400.3, 96.06 387.33, 80.1 374.42 C64.13 361.52, 50.45 347.95, 38.88 332.64 C27.32 317.33, 17.28 299.65, 10.73 282.55 C4.18 265.46, 0.18 248.01, -0.4 230.05 C-0.99 212.1, 2.21 192.32, 7.23 174.83 C12.24 157.34, 19.39 141.02, 29.68 125.11 C39.97 109.19, 53.62 93.03, 68.96 79.34 C84.29 65.66, 102.71 53.51, 121.69 42.99 C140.67 32.48, 158.93 23.15, 182.83 16.25 C206.72 9.36, 249.21 3.36, 265.06 1.61 C280.91 -0.14, 277.5 2.1, 277.93 5.76" stroke="#1e1e1e" stroke-width="1.5" fill="none" stroke-dasharray="8 9"></path></g><g stroke-linecap="round" transform="translate(1627.4026287863712 20.348134423478086) rotate(0 295.69555842928844 222.64277720794098)"><path d="M261.84 1.71 C283.63 -3.78, 310.11 -0.23, 333.28 1.79 C356.45 3.81, 379.14 7.53, 400.87 13.82 C422.59 20.12, 444.09 29.24, 463.63 39.57 C483.17 49.89, 502.36 62.33, 518.12 75.75 C533.87 89.18, 547.24 104.34, 558.16 120.11 C569.09 135.87, 578.31 152.99, 583.68 170.35 C589.05 187.71, 590.59 206.53, 590.39 224.27 C590.19 242.01, 588.18 259.82, 582.49 276.78 C576.81 293.75, 567.25 310.42, 556.3 326.05 C545.34 341.67, 532.31 357.02, 516.78 370.52 C501.24 384.02, 482.71 396.81, 463.08 407.04 C443.45 417.27, 421.12 425.94, 399.01 431.91 C376.89 437.88, 353.63 440.83, 330.37 442.86 C307.11 444.9, 282.79 446.22, 259.44 444.13 C236.09 442.03, 212.33 436.77, 190.26 430.31 C168.18 423.85, 146.48 415.34, 127 405.34 C107.51 395.35, 89.04 383.49, 73.35 370.33 C57.66 357.16, 43.69 342.36, 32.86 326.36 C22.04 310.36, 13.78 291.78, 8.4 274.32 C3.02 256.87, 0.43 239.36, 0.56 221.63 C0.7 203.91, 3.64 185.24, 9.22 167.97 C14.81 150.7, 23.23 133.49, 34.07 118.03 C44.9 102.58, 58.41 88.5, 74.24 75.23 C90.06 61.97, 109.47 48.69, 129.02 38.45 C148.56 28.21, 167.36 20.12, 191.53 13.79 C215.7 7.46, 258.08 2.1, 274.03 0.46 C289.97 -1.19, 286.78 0.07, 287.19 3.94" stroke="#1e1e1e" stroke-width="1.5" fill="none" stroke-dasharray="8 9"></path></g><g stroke-linecap="round"><g transform="translate(520.9114729984159 474.7308520313395) rotate(0 0 61.23552086998177)"><path d="M0 0 C0 30.13, 0 60.25, 0 122.47 M0 0 C0 26, 0 51.99, 0 122.47" stroke="#1e1e1e" stroke-width="2" fill="none"></path></g><g transform="translate(520.9114729984159 474.7308520313395) rotate(0 0 61.23552086998177)"><path d="M-10.26 94.28 C-7.74 101.22, -5.21 108.15, 0 122.47 M-10.26 94.28 C-8.08 100.26, -5.9 106.25, 0 122.47" stroke="#1e1e1e" stroke-width="2" fill="none"></path></g><g transform="translate(520.9114729984159 474.7308520313395) rotate(0 0 61.23552086998177)"><path d="M10.26 94.28 C7.74 101.22, 5.21 108.15, 0 122.47 M10.26 94.28 C8.08 100.26, 5.9 106.25, 0 122.47" stroke="#1e1e1e" stroke-width="2" fill="none"></path></g></g><mask></mask><g transform="translate(484.4130963252875 601.2455673351669) rotate(0 38.46598815917969 22.5)"><text x="0" y="0" font-family="Virgil, Segoe UI Emoji" font-size="36px" fill="#1e1e1e" text-anchor="start" style="white-space: pre;" direction="ltr" dominant-baseline="text-before-edge">node</text></g><g stroke-linecap="round"><g transform="translate(1234.2936100112497 482.9687236809589) rotate(0 0 61.23552086998177)"><path d="M0 0 C0 48.21, 0 96.42, 0 122.47 M0 0 C0 26.64, 0 53.28, 0 122.47" stroke="#1e1e1e" stroke-width="2" fill="none"></path></g><g transform="translate(1234.2936100112497 482.9687236809589) rotate(0 0 61.23552086998177)"><path d="M-10.26 94.28 C-6.22 105.38, -2.18 116.48, 0 122.47 M-10.26 94.28 C-8.03 100.41, -5.8 106.54, 0 122.47" stroke="#1e1e1e" stroke-width="2" fill="none"></path></g><g transform="translate(1234.2936100112497 482.9687236809589) rotate(0 0 61.23552086998177)"><path d="M10.26 94.28 C6.22 105.38, 2.18 116.48, 0 122.47 M10.26 94.28 C8.03 100.41, 5.8 106.54, 0 122.47" stroke="#1e1e1e" stroke-width="2" fill="none"></path></g></g><mask></mask><g transform="translate(1197.7952333381213 609.4834389847863) rotate(0 38.46598815917969 22.5)"><text x="0" y="0" font-family="Virgil, Segoe UI Emoji" font-size="36px" fill="#1e1e1e" text-anchor="start" style="white-space: pre;" direction="ltr" dominant-baseline="text-before-edge">node</text></g><g stroke-linecap="round"><g transform="translate(1945.41602035687 489.340850441931) rotate(0 0 61.23552086998177)"><path d="M0 0 C0 42.57, 0 85.14, 0 122.47 M0 0 C0 35.1, 0 70.19, 0 122.47" stroke="#1e1e1e" stroke-width="2" fill="none"></path></g><g transform="translate(1945.41602035687 489.340850441931) rotate(0 0 61.23552086998177)"><path d="M-10.26 94.28 C-6.69 104.08, -3.13 113.88, 0 122.47 M-10.26 94.28 C-7.32 102.36, -4.38 110.44, 0 122.47" stroke="#1e1e1e" stroke-width="2" fill="none"></path></g><g transform="translate(1945.41602035687 489.340850441931) rotate(0 0 61.23552086998177)"><path d="M10.26 94.28 C6.69 104.08, 3.13 113.88, 0 122.47 M10.26 94.28 C7.32 102.36, 4.38 110.44, 0 122.47" stroke="#1e1e1e" stroke-width="2" fill="none"></path></g></g><mask></mask><g transform="translate(1908.9176436837415 615.8555657457584) rotate(0 38.46598815917969 22.5)"><text x="0" y="0" font-family="Virgil, Segoe UI Emoji" font-size="36px" fill="#1e1e1e" text-anchor="start" style="white-space: pre;" direction="ltr" dominant-baseline="text-before-edge">node</text></g><g stroke-linecap="round"><g transform="translate(218.61900072245533 255.916445413695) rotate(0 -56.14717356706285 -0.14697665009649086)"><path d="M0.01 -0.92 C-18.55 -0.87, -93.63 0.32, -112.31 0.4 M-1.44 1.22 C-19.53 0.88, -91.34 -1.42, -109.93 -1.51" stroke="#1e1e1e" stroke-width="1" fill="none"></path></g><g transform="translate(218.61900072245533 255.916445413695) rotate(0 -56.14717356706285 -0.14697665009649086)"><path d="M-83.07 -12.28 C-87.2 -9.65, -94.92 -5.57, -110.2 0 M-80.73 -11.02 C-88.25 -9.71, -93.67 -6.36, -109.03 -1.79" stroke="#1e1e1e" stroke-width="1" fill="none"></path></g><g transform="translate(218.61900072245533 255.916445413695) rotate(0 -56.14717356706285 -0.14697665009649086)"><path d="M-83.48 8.24 C-87.55 6.28, -95.18 5.79, -110.2 0 M-81.14 9.5 C-88.67 6.52, -94 5.58, -109.03 -1.79" stroke="#1e1e1e" stroke-width="1" fill="none"></path></g></g><mask></mask><g transform="translate(10 227.9205791545196) rotate(0 40.985984802246094 22.5)"><text x="0" y="0" font-family="Virgil, Segoe UI Emoji" font-size="36px" fill="#1e1e1e" text-anchor="start" style="white-space: pre;" direction="ltr" dominant-baseline="text-before-edge">head</text></g></svg>